%TF.GenerationSoftware,KiCad,Pcbnew,9.0.7*%
%TF.CreationDate,2026-03-02T20:20:46-05:00*%
%TF.ProjectId,PCB,5043422e-6b69-4636-9164-5f7063625858,rev?*%
%TF.SameCoordinates,Original*%
%TF.FileFunction,Copper,L1,Top*%
%TF.FilePolarity,Positive*%
%FSLAX46Y46*%
G04 Gerber Fmt 4.6, Leading zero omitted, Abs format (unit mm)*
G04 Created by KiCad (PCBNEW 9.0.7) date 2026-03-02 20:20:46*
%MOMM*%
%LPD*%
G01*
G04 APERTURE LIST*
G04 Aperture macros list*
%AMRoundRect*
0 Rectangle with rounded corners*
0 $1 Rounding radius*
0 $2 $3 $4 $5 $6 $7 $8 $9 X,Y pos of 4 corners*
0 Add a 4 corners polygon primitive as box body*
4,1,4,$2,$3,$4,$5,$6,$7,$8,$9,$2,$3,0*
0 Add four circle primitives for the rounded corners*
1,1,$1+$1,$2,$3*
1,1,$1+$1,$4,$5*
1,1,$1+$1,$6,$7*
1,1,$1+$1,$8,$9*
0 Add four rect primitives between the rounded corners*
20,1,$1+$1,$2,$3,$4,$5,0*
20,1,$1+$1,$4,$5,$6,$7,0*
20,1,$1+$1,$6,$7,$8,$9,0*
20,1,$1+$1,$8,$9,$2,$3,0*%
G04 Aperture macros list end*
%TA.AperFunction,ComponentPad*%
%ADD10C,1.700000*%
%TD*%
%TA.AperFunction,ComponentPad*%
%ADD11R,1.700000X1.700000*%
%TD*%
%TA.AperFunction,SMDPad,CuDef*%
%ADD12RoundRect,0.160000X0.160000X-0.197500X0.160000X0.197500X-0.160000X0.197500X-0.160000X-0.197500X0*%
%TD*%
%TA.AperFunction,SMDPad,CuDef*%
%ADD13RoundRect,0.160000X0.197500X0.160000X-0.197500X0.160000X-0.197500X-0.160000X0.197500X-0.160000X0*%
%TD*%
%TA.AperFunction,SMDPad,CuDef*%
%ADD14RoundRect,0.155000X-0.155000X0.212500X-0.155000X-0.212500X0.155000X-0.212500X0.155000X0.212500X0*%
%TD*%
%TA.AperFunction,ViaPad*%
%ADD15C,0.600000*%
%TD*%
%TA.AperFunction,Conductor*%
%ADD16C,0.200000*%
%TD*%
G04 APERTURE END LIST*
D10*
%TO.P,ESP32,1,VBAT*%
%TO.N,+BATT*%
X126720000Y-109550000D03*
%TO.P,ESP32,2,GND*%
%TO.N,GND*%
X126720000Y-107010000D03*
%TO.P,ESP32,3,5V*%
%TO.N,unconnected-(ESP32-5V-Pad3)*%
X126720000Y-104470000D03*
%TO.P,ESP32,4,3V3*%
%TO.N,+3V3*%
X126720000Y-101930000D03*
%TO.P,ESP32,5,IO1*%
%TO.N,/FILTER_OUT*%
X126720000Y-99390000D03*
%TO.P,ESP32,6,IO2*%
%TO.N,/BTN3*%
X126720000Y-96850000D03*
%TO.P,ESP32,7,IO3*%
%TO.N,unconnected-(ESP32-IO3-Pad7)*%
X126720000Y-94310000D03*
%TO.P,ESP32,8,IO4*%
%TO.N,/RST*%
X126720000Y-91770000D03*
%TO.P,ESP32,9,IO5*%
%TO.N,/DC*%
X126720000Y-89230000D03*
%TO.P,ESP32,10,IO21*%
%TO.N,/BL*%
X126720000Y-86690000D03*
D11*
%TO.P,ESP32,11,IO0*%
%TO.N,unconnected-(ESP32-IO0-Pad11)*%
X126720000Y-84150000D03*
%TO.P,ESP32,12,RX*%
%TO.N,unconnected-(ESP32-RX-Pad12)*%
X141950000Y-81610000D03*
D10*
%TO.P,ESP32,13,TX*%
%TO.N,unconnected-(ESP32-TX-Pad13)*%
X141950000Y-84150000D03*
%TO.P,ESP32,14,GND*%
%TO.N,GND*%
X141950000Y-86690000D03*
%TO.P,ESP32,15,RST*%
%TO.N,unconnected-(ESP32-RST-Pad15)*%
X141950000Y-89230000D03*
%TO.P,ESP32,16,IO6*%
%TO.N,/BTN1*%
X141950000Y-91770000D03*
%TO.P,ESP32,17,IO7*%
%TO.N,/BTN2*%
X141950000Y-94310000D03*
%TO.P,ESP32,18,IO8*%
%TO.N,/SDA*%
X141950000Y-96850000D03*
%TO.P,ESP32,19,IO9*%
%TO.N,/SCL*%
X141950000Y-99390000D03*
%TO.P,ESP32,20,IO34*%
%TO.N,/CS*%
X141950000Y-101930000D03*
%TO.P,ESP32,21,IO36*%
%TO.N,/CLK*%
X141950000Y-104470000D03*
%TO.P,ESP32,22,IO37*%
%TO.N,unconnected-(ESP32-IO37-Pad22)*%
X141950000Y-107010000D03*
%TO.P,ESP32,23,IO35*%
%TO.N,/DIN*%
X141950000Y-109550000D03*
%TD*%
D11*
%TO.P,LCD,1,BL*%
%TO.N,Net-(LCD1-BL)*%
X125220000Y-67312500D03*
D10*
%TO.P,LCD,2,RST*%
%TO.N,Net-(LCD1-RST)*%
X127760000Y-67312500D03*
%TO.P,LCD,3,DC*%
%TO.N,Net-(LCD1-DC)*%
X130300000Y-67312500D03*
%TO.P,LCD,4,CS*%
%TO.N,Net-(LCD1-CS)*%
X132840000Y-67312500D03*
%TO.P,LCD,5,CLK*%
%TO.N,Net-(LCD1-CLK)*%
X135380000Y-67312500D03*
%TO.P,LCD,6,DIN*%
%TO.N,Net-(LCD1-DIN)*%
X137920000Y-67312500D03*
%TO.P,LCD,7,GND*%
%TO.N,GND*%
X140460000Y-67312500D03*
%TO.P,LCD,8,VCC*%
%TO.N,+3V3*%
X143000000Y-67312500D03*
%TD*%
D12*
%TO.P,R4,2*%
%TO.N,Net-(LCD1-DIN)*%
X137800000Y-108302500D03*
%TO.P,R4,1*%
%TO.N,/DIN*%
X137800000Y-109497500D03*
%TD*%
D11*
%TO.P,ADXL345,1,GND*%
%TO.N,GND*%
X147900000Y-81020000D03*
D10*
%TO.P,ADXL345,2,VCC*%
%TO.N,+3V3*%
X147900000Y-83560000D03*
%TO.P,ADXL345,3,CS*%
%TO.N,unconnected-(ADXL345-CS-Pad3)*%
X147900000Y-86100000D03*
%TO.P,ADXL345,4,INT1*%
%TO.N,unconnected-(ADXL345-INT1-Pad4)*%
X147900000Y-88640000D03*
%TO.P,ADXL345,5,INT2*%
%TO.N,unconnected-(ADXL345-INT2-Pad5)*%
X147900000Y-91180000D03*
%TO.P,ADXL345,6,SDO*%
%TO.N,unconnected-(ADXL345-SDO-Pad6)*%
X147900000Y-93720000D03*
%TO.P,ADXL345,7,SDA*%
%TO.N,/SDA*%
X147900000Y-96260000D03*
%TO.P,ADXL345,8,SCL*%
%TO.N,/SCL*%
X147900000Y-98800000D03*
%TD*%
D13*
%TO.P,R5,1*%
%TO.N,/CLK*%
X136750000Y-104470200D03*
%TO.P,R5,2*%
%TO.N,Net-(LCD1-CLK)*%
X135555000Y-104470200D03*
%TD*%
%TO.P,R3,1*%
%TO.N,/FILTER_OUT*%
X121375000Y-99400000D03*
%TO.P,R3,2*%
%TO.N,/FILTER_IN*%
X120180000Y-99400000D03*
%TD*%
D11*
%TO.P,SWITCHES,1,GND*%
%TO.N,GND*%
X147715000Y-107030000D03*
D10*
%TO.P,SWITCHES,2,BTN1*%
%TO.N,/BTN1*%
X147715000Y-109570000D03*
%TO.P,SWITCHES,3,BTN2*%
%TO.N,/BTN2*%
X147715000Y-112110000D03*
%TO.P,SWITCHES,4,BTN3*%
%TO.N,/BTN3*%
X147715000Y-114650000D03*
%TD*%
D12*
%TO.P,R8,1*%
%TO.N,/RST*%
X123000000Y-91795000D03*
%TO.P,R8,2*%
%TO.N,Net-(LCD1-RST)*%
X123000000Y-90600000D03*
%TD*%
D14*
%TO.P,C3,1*%
%TO.N,/FILTER_OUT*%
X123100000Y-99400000D03*
%TO.P,C3,2*%
%TO.N,GND*%
X123100000Y-100535000D03*
%TD*%
D12*
%TO.P,R7,1*%
%TO.N,/DC*%
X130400000Y-89247500D03*
%TO.P,R7,2*%
%TO.N,Net-(LCD1-DC)*%
X130400000Y-88052500D03*
%TD*%
%TO.P,R6,1*%
%TO.N,/CS*%
X136400000Y-100797500D03*
%TO.P,R6,2*%
%TO.N,Net-(LCD1-CS)*%
X136400000Y-99602500D03*
%TD*%
D13*
%TO.P,R2,1*%
%TO.N,/BL*%
X122995000Y-86715600D03*
%TO.P,R2,2*%
%TO.N,Net-(LCD1-BL)*%
X121800000Y-86715600D03*
%TD*%
%TO.P,R1,1*%
%TO.N,Net-(LCD1-BL)*%
X120102700Y-86715600D03*
%TO.P,R1,2*%
%TO.N,GND*%
X118907700Y-86715600D03*
%TD*%
D11*
%TO.P,SENSOR,1,GND*%
%TO.N,GND*%
X117000000Y-94320000D03*
D10*
%TO.P,SENSOR,2,V+*%
%TO.N,+3V3*%
X117000000Y-96860000D03*
%TO.P,SENSOR,3,SIGNAL*%
%TO.N,/FILTER_IN*%
X117000000Y-99400000D03*
%TD*%
D15*
%TO.N,GND*%
X143400000Y-100700000D03*
X138900000Y-101450000D03*
X136400000Y-69400000D03*
X123700000Y-88100000D03*
X137100000Y-98450000D03*
X146100000Y-101700000D03*
X123700000Y-85300000D03*
X136700000Y-106850000D03*
%TO.N,/BTN1*%
X144900000Y-101700000D03*
%TO.N,/BTN2*%
X144300000Y-100100000D03*
%TO.N,Net-(LCD1-DIN)*%
X137800000Y-106800000D03*
X137800000Y-100000000D03*
%TO.N,Net-(LCD1-CS)*%
X136400000Y-70750000D03*
%TO.N,Net-(LCD1-RST)*%
X124500000Y-87227000D03*
X124500000Y-86173000D03*
%TD*%
D16*
%TO.N,/BTN2*%
X144300000Y-100100000D02*
X144300000Y-108695000D01*
X144300000Y-108695000D02*
X147715000Y-112110000D01*
%TO.N,/BTN1*%
X147715000Y-109570000D02*
X144900000Y-106755000D01*
X144900000Y-101700000D02*
X144900000Y-106755000D01*
%TO.N,Net-(LCD1-DIN)*%
X137800000Y-100000000D02*
X137920000Y-99880000D01*
X137920000Y-99880000D02*
X137920000Y-67312500D01*
X137800000Y-100000000D02*
X137850000Y-99950000D01*
X137850000Y-99950000D02*
X137900000Y-99950000D01*
X137900000Y-99950000D02*
X137800000Y-99850000D01*
X137800000Y-67432500D02*
X137920000Y-67312500D01*
X137800000Y-106800000D02*
X137800000Y-108302500D01*
%TO.N,/BTN3*%
X147715000Y-114650000D02*
X140250000Y-114650000D01*
X130900000Y-101030000D02*
X126720000Y-96850000D01*
X140250000Y-114650000D02*
X130900000Y-105300000D01*
X130900000Y-105300000D02*
X130900000Y-101030000D01*
%TO.N,/DC*%
X130400000Y-89247500D02*
X126737500Y-89247500D01*
X126737500Y-89247500D02*
X126720000Y-89230000D01*
%TO.N,Net-(LCD1-DC)*%
X130300000Y-67312500D02*
X130300000Y-87952500D01*
X130300000Y-87952500D02*
X130400000Y-88052500D01*
%TO.N,Net-(LCD1-RST)*%
X127760000Y-67312500D02*
X124500000Y-70572500D01*
X124500000Y-70572500D02*
X124500000Y-86173000D01*
X123000000Y-90600000D02*
X124500000Y-89100000D01*
X124500000Y-89100000D02*
X124500000Y-87227000D01*
%TO.N,/RST*%
X126720000Y-91770000D02*
X123025000Y-91770000D01*
X123025000Y-91770000D02*
X123000000Y-91795000D01*
%TO.N,Net-(LCD1-BL)*%
X125220000Y-67312500D02*
X121800000Y-70732500D01*
X121800000Y-70732500D02*
X121800000Y-86715600D01*
X121800000Y-86715600D02*
X120102700Y-86715600D01*
%TO.N,/BL*%
X126720000Y-86690000D02*
X126710000Y-86700000D01*
X126710000Y-86700000D02*
X123225300Y-86700000D01*
X123225300Y-86700000D02*
X123225300Y-86715600D01*
%TO.N,/CS*%
X141950000Y-101930000D02*
X140817500Y-100797500D01*
X140817500Y-100797500D02*
X136400000Y-100797500D01*
%TO.N,/CLK*%
X136750000Y-104470200D02*
X141949800Y-104470200D01*
X141949800Y-104470200D02*
X141950000Y-104470000D01*
%TO.N,/DIN*%
X141950000Y-109550000D02*
X137852500Y-109550000D01*
X137852500Y-109550000D02*
X137800000Y-109497500D01*
%TO.N,/SDA*%
X147900000Y-96260000D02*
X142540000Y-96260000D01*
X142540000Y-96260000D02*
X141950000Y-96850000D01*
%TO.N,/SCL*%
X147900000Y-98800000D02*
X142540000Y-98800000D01*
X142540000Y-98800000D02*
X141950000Y-99390000D01*
%TO.N,/FILTER_OUT*%
X123100000Y-99400000D02*
X121375000Y-99400000D01*
X126720000Y-99390000D02*
X123110000Y-99390000D01*
X123110000Y-99390000D02*
X123100000Y-99400000D01*
%TO.N,/FILTER_IN*%
X120180000Y-99400000D02*
X117000000Y-99400000D01*
%TO.N,Net-(LCD1-CS)*%
X136400000Y-98350000D02*
X136400000Y-70750000D01*
X136400000Y-99602500D02*
X136400000Y-98350000D01*
%TO.N,Net-(LCD1-CLK)*%
X135555000Y-104470200D02*
X135555000Y-67175000D01*
X135555000Y-67175000D02*
X135380000Y-67000000D01*
%TD*%
%TA.AperFunction,Conductor*%
%TO.N,GND*%
G36*
X134181444Y-67966499D02*
G01*
X134220486Y-68011556D01*
X134224951Y-68020320D01*
X134349890Y-68192286D01*
X134500213Y-68342609D01*
X134672179Y-68467548D01*
X134672181Y-68467549D01*
X134672184Y-68467551D01*
X134861588Y-68564057D01*
X134868811Y-68566404D01*
X134926488Y-68605836D01*
X134953691Y-68670193D01*
X134954500Y-68684336D01*
X134954500Y-103727750D01*
X134934815Y-103794789D01*
X134918181Y-103815431D01*
X134833746Y-103899865D01*
X134833742Y-103899870D01*
X134750767Y-104037129D01*
X134750765Y-104037133D01*
X134703048Y-104190265D01*
X134697000Y-104256821D01*
X134697000Y-104683588D01*
X134703046Y-104750126D01*
X134703048Y-104750133D01*
X134750765Y-104903266D01*
X134750767Y-104903270D01*
X134833742Y-105040529D01*
X134833746Y-105040534D01*
X134947165Y-105153953D01*
X134947170Y-105153957D01*
X135084429Y-105236932D01*
X135084433Y-105236934D01*
X135138600Y-105253812D01*
X135237567Y-105284652D01*
X135304119Y-105290700D01*
X135805880Y-105290699D01*
X135805888Y-105290699D01*
X135872426Y-105284653D01*
X135872427Y-105284652D01*
X135872433Y-105284652D01*
X136025569Y-105236933D01*
X136088350Y-105198979D01*
X136155905Y-105181144D01*
X136216649Y-105198979D01*
X136279431Y-105236933D01*
X136279434Y-105236934D01*
X136279433Y-105236934D01*
X136333600Y-105253812D01*
X136432567Y-105284652D01*
X136499119Y-105290700D01*
X137000880Y-105290699D01*
X137000888Y-105290699D01*
X137067426Y-105284653D01*
X137067427Y-105284652D01*
X137067433Y-105284652D01*
X137220569Y-105236933D01*
X137291217Y-105194224D01*
X137357829Y-105153957D01*
X137357830Y-105153955D01*
X137357835Y-105153953D01*
X137404769Y-105107019D01*
X137466092Y-105073534D01*
X137492450Y-105070700D01*
X140664384Y-105070700D01*
X140731423Y-105090385D01*
X140774868Y-105138405D01*
X140794949Y-105177816D01*
X140794952Y-105177820D01*
X140794956Y-105177826D01*
X140919890Y-105349786D01*
X141070213Y-105500109D01*
X141242182Y-105625050D01*
X141250946Y-105629516D01*
X141301742Y-105677491D01*
X141318536Y-105745312D01*
X141295998Y-105811447D01*
X141250946Y-105850484D01*
X141242182Y-105854949D01*
X141070213Y-105979890D01*
X140919890Y-106130213D01*
X140794951Y-106302179D01*
X140698444Y-106491585D01*
X140632753Y-106693760D01*
X140599500Y-106903713D01*
X140599500Y-107116286D01*
X140632735Y-107326127D01*
X140632754Y-107326243D01*
X140687887Y-107495925D01*
X140698444Y-107528414D01*
X140794951Y-107717820D01*
X140919890Y-107889786D01*
X141070213Y-108040109D01*
X141242182Y-108165050D01*
X141250946Y-108169516D01*
X141301742Y-108217491D01*
X141318536Y-108285312D01*
X141295998Y-108351447D01*
X141250946Y-108390484D01*
X141242182Y-108394949D01*
X141070213Y-108519890D01*
X140919890Y-108670213D01*
X140794948Y-108842184D01*
X140794947Y-108842185D01*
X140774765Y-108881795D01*
X140726791Y-108932591D01*
X140664281Y-108949500D01*
X138679115Y-108949500D01*
X138612076Y-108929815D01*
X138566321Y-108877011D01*
X138556377Y-108807853D01*
X138566042Y-108774604D01*
X138566732Y-108773070D01*
X138566733Y-108773069D01*
X138614452Y-108619933D01*
X138620500Y-108553381D01*
X138620499Y-108051620D01*
X138620499Y-108051619D01*
X138620499Y-108051611D01*
X138614453Y-107985073D01*
X138614452Y-107985070D01*
X138614452Y-107985067D01*
X138566733Y-107831931D01*
X138557354Y-107816416D01*
X138483757Y-107694670D01*
X138483753Y-107694665D01*
X138436819Y-107647731D01*
X138422115Y-107620803D01*
X138405523Y-107594985D01*
X138404631Y-107588784D01*
X138403334Y-107586408D01*
X138400500Y-107560050D01*
X138400500Y-107379765D01*
X138420185Y-107312726D01*
X138421398Y-107310874D01*
X138509390Y-107179185D01*
X138509390Y-107179184D01*
X138509394Y-107179179D01*
X138569737Y-107033497D01*
X138600500Y-106878842D01*
X138600500Y-106721158D01*
X138600500Y-106721155D01*
X138600499Y-106721153D01*
X138595050Y-106693760D01*
X138569737Y-106566503D01*
X138538787Y-106491782D01*
X138509397Y-106420827D01*
X138509390Y-106420814D01*
X138421789Y-106289711D01*
X138421786Y-106289707D01*
X138310292Y-106178213D01*
X138310288Y-106178210D01*
X138179185Y-106090609D01*
X138179172Y-106090602D01*
X138033501Y-106030264D01*
X138033489Y-106030261D01*
X137878845Y-105999500D01*
X137878842Y-105999500D01*
X137721158Y-105999500D01*
X137721155Y-105999500D01*
X137566510Y-106030261D01*
X137566498Y-106030264D01*
X137420827Y-106090602D01*
X137420814Y-106090609D01*
X137289711Y-106178210D01*
X137289707Y-106178213D01*
X137178213Y-106289707D01*
X137178210Y-106289711D01*
X137090609Y-106420814D01*
X137090602Y-106420827D01*
X137030264Y-106566498D01*
X137030261Y-106566510D01*
X136999500Y-106721153D01*
X136999500Y-106878846D01*
X137030261Y-107033489D01*
X137030264Y-107033501D01*
X137090602Y-107179172D01*
X137090609Y-107179185D01*
X137178602Y-107310874D01*
X137184252Y-107328920D01*
X137194477Y-107344830D01*
X137198928Y-107375789D01*
X137199480Y-107377551D01*
X137199500Y-107379765D01*
X137199500Y-107560050D01*
X137179815Y-107627089D01*
X137163181Y-107647731D01*
X137116246Y-107694665D01*
X137116242Y-107694670D01*
X137033267Y-107831929D01*
X137033265Y-107831933D01*
X136985548Y-107985065D01*
X136985338Y-107987379D01*
X136980547Y-108040104D01*
X136979500Y-108051621D01*
X136979500Y-108553388D01*
X136985546Y-108619926D01*
X136985548Y-108619933D01*
X137033265Y-108773066D01*
X137033267Y-108773070D01*
X137071219Y-108835851D01*
X137089055Y-108903406D01*
X137071219Y-108964149D01*
X137033267Y-109026929D01*
X137033265Y-109026933D01*
X136985548Y-109180065D01*
X136979500Y-109246621D01*
X136979500Y-109748388D01*
X136985546Y-109814926D01*
X136985548Y-109814933D01*
X137033265Y-109968066D01*
X137033267Y-109968070D01*
X137116242Y-110105329D01*
X137116246Y-110105334D01*
X137229665Y-110218753D01*
X137229670Y-110218757D01*
X137366929Y-110301732D01*
X137366933Y-110301734D01*
X137421100Y-110318612D01*
X137520067Y-110349452D01*
X137586619Y-110355500D01*
X138013380Y-110355499D01*
X138013388Y-110355499D01*
X138079926Y-110349453D01*
X138079927Y-110349452D01*
X138079933Y-110349452D01*
X138233069Y-110301733D01*
X138305720Y-110257814D01*
X138370329Y-110218757D01*
X138370330Y-110218755D01*
X138370335Y-110218753D01*
X138402269Y-110186819D01*
X138463592Y-110153334D01*
X138489950Y-110150500D01*
X140664281Y-110150500D01*
X140731320Y-110170185D01*
X140774765Y-110218205D01*
X140794947Y-110257814D01*
X140794948Y-110257815D01*
X140919890Y-110429786D01*
X141070213Y-110580109D01*
X141242179Y-110705048D01*
X141242181Y-110705049D01*
X141242184Y-110705051D01*
X141431588Y-110801557D01*
X141633757Y-110867246D01*
X141843713Y-110900500D01*
X141843714Y-110900500D01*
X142056286Y-110900500D01*
X142056287Y-110900500D01*
X142266243Y-110867246D01*
X142468412Y-110801557D01*
X142657816Y-110705051D01*
X142679789Y-110689086D01*
X142829786Y-110580109D01*
X142829788Y-110580106D01*
X142829792Y-110580104D01*
X142980104Y-110429792D01*
X142980106Y-110429788D01*
X142980109Y-110429786D01*
X143105048Y-110257820D01*
X143105047Y-110257820D01*
X143105051Y-110257816D01*
X143201557Y-110068412D01*
X143267246Y-109866243D01*
X143300500Y-109656287D01*
X143300500Y-109443713D01*
X143267246Y-109233757D01*
X143201557Y-109031588D01*
X143105051Y-108842184D01*
X143105049Y-108842181D01*
X143105048Y-108842179D01*
X142980109Y-108670213D01*
X142829786Y-108519890D01*
X142657820Y-108394951D01*
X142657115Y-108394591D01*
X142649054Y-108390485D01*
X142598259Y-108342512D01*
X142581463Y-108274692D01*
X142603999Y-108208556D01*
X142649054Y-108169515D01*
X142657816Y-108165051D01*
X142716953Y-108122086D01*
X142829786Y-108040109D01*
X142829788Y-108040106D01*
X142829792Y-108040104D01*
X142980104Y-107889792D01*
X142980106Y-107889788D01*
X142980109Y-107889786D01*
X143105048Y-107717820D01*
X143105047Y-107717820D01*
X143105051Y-107717816D01*
X143201557Y-107528412D01*
X143267246Y-107326243D01*
X143300500Y-107116287D01*
X143300500Y-106903713D01*
X143267246Y-106693757D01*
X143201557Y-106491588D01*
X143105051Y-106302184D01*
X143105049Y-106302181D01*
X143105048Y-106302179D01*
X142980109Y-106130213D01*
X142829786Y-105979890D01*
X142657820Y-105854951D01*
X142649600Y-105850763D01*
X142649054Y-105850485D01*
X142598259Y-105802512D01*
X142581463Y-105734692D01*
X142603999Y-105668556D01*
X142649054Y-105629515D01*
X142657816Y-105625051D01*
X142786187Y-105531785D01*
X142829786Y-105500109D01*
X142829788Y-105500106D01*
X142829792Y-105500104D01*
X142980104Y-105349792D01*
X142980106Y-105349788D01*
X142980109Y-105349786D01*
X143105048Y-105177820D01*
X143105047Y-105177820D01*
X143105051Y-105177816D01*
X143201557Y-104988412D01*
X143267246Y-104786243D01*
X143300500Y-104576287D01*
X143300500Y-104363713D01*
X143267246Y-104153757D01*
X143201557Y-103951588D01*
X143105051Y-103762184D01*
X143105049Y-103762181D01*
X143105048Y-103762179D01*
X142980109Y-103590213D01*
X142829786Y-103439890D01*
X142657820Y-103314951D01*
X142657115Y-103314591D01*
X142649054Y-103310485D01*
X142598259Y-103262512D01*
X142581463Y-103194692D01*
X142603999Y-103128556D01*
X142649054Y-103089515D01*
X142657816Y-103085051D01*
X142679789Y-103069086D01*
X142829786Y-102960109D01*
X142829788Y-102960106D01*
X142829792Y-102960104D01*
X142980104Y-102809792D01*
X142980106Y-102809788D01*
X142980109Y-102809786D01*
X143105048Y-102637820D01*
X143105047Y-102637820D01*
X143105051Y-102637816D01*
X143201557Y-102448412D01*
X143267246Y-102246243D01*
X143300500Y-102036287D01*
X143300500Y-101823713D01*
X143267246Y-101613757D01*
X143201557Y-101411588D01*
X143105051Y-101222184D01*
X143105049Y-101222181D01*
X143105048Y-101222179D01*
X142980109Y-101050213D01*
X142829786Y-100899890D01*
X142657820Y-100774951D01*
X142657115Y-100774591D01*
X142649054Y-100770485D01*
X142598259Y-100722512D01*
X142581463Y-100654692D01*
X142603999Y-100588556D01*
X142649054Y-100549515D01*
X142657816Y-100545051D01*
X142679789Y-100529086D01*
X142829786Y-100420109D01*
X142829788Y-100420106D01*
X142829792Y-100420104D01*
X142980104Y-100269792D01*
X142980106Y-100269788D01*
X142980109Y-100269786D01*
X143105048Y-100097820D01*
X143105047Y-100097820D01*
X143105051Y-100097816D01*
X143201557Y-99908412D01*
X143267246Y-99706243D01*
X143299104Y-99505102D01*
X143313700Y-99474310D01*
X143327864Y-99443297D01*
X143328638Y-99442799D01*
X143329033Y-99441967D01*
X143357971Y-99423948D01*
X143386642Y-99405523D01*
X143387839Y-99405350D01*
X143388345Y-99405036D01*
X143421577Y-99400500D01*
X143572650Y-99400500D01*
X143639689Y-99420185D01*
X143685444Y-99472989D01*
X143695388Y-99542147D01*
X143675752Y-99593391D01*
X143590609Y-99720814D01*
X143590602Y-99720827D01*
X143530264Y-99866498D01*
X143530261Y-99866510D01*
X143499500Y-100021153D01*
X143499500Y-100178846D01*
X143530261Y-100333489D01*
X143530264Y-100333501D01*
X143590602Y-100479172D01*
X143590609Y-100479185D01*
X143678602Y-100610874D01*
X143699480Y-100677551D01*
X143699500Y-100679765D01*
X143699500Y-108608330D01*
X143699499Y-108608348D01*
X143699499Y-108774054D01*
X143699498Y-108774054D01*
X143740423Y-108926784D01*
X143740424Y-108926787D01*
X143743561Y-108932220D01*
X143743562Y-108932222D01*
X143819477Y-109063712D01*
X143819481Y-109063717D01*
X143938349Y-109182585D01*
X143938355Y-109182590D01*
X146381241Y-111625476D01*
X146414726Y-111686799D01*
X146411492Y-111751473D01*
X146397753Y-111793757D01*
X146364500Y-112003713D01*
X146364500Y-112216286D01*
X146397753Y-112426239D01*
X146463444Y-112628414D01*
X146559951Y-112817820D01*
X146684890Y-112989786D01*
X146835213Y-113140109D01*
X147007182Y-113265050D01*
X147015946Y-113269516D01*
X147066742Y-113317491D01*
X147083536Y-113385312D01*
X147060998Y-113451447D01*
X147015946Y-113490484D01*
X147007182Y-113494949D01*
X146835213Y-113619890D01*
X146684890Y-113770213D01*
X146559948Y-113942184D01*
X146559947Y-113942185D01*
X146539765Y-113981795D01*
X146491791Y-114032591D01*
X146429281Y-114049500D01*
X140550097Y-114049500D01*
X140483058Y-114029815D01*
X140462416Y-114013181D01*
X131536819Y-105087584D01*
X131503334Y-105026261D01*
X131500500Y-104999903D01*
X131500500Y-101119060D01*
X131500501Y-101119047D01*
X131500501Y-100950944D01*
X131494960Y-100930264D01*
X131459577Y-100798216D01*
X131443566Y-100770484D01*
X131380524Y-100661290D01*
X131380518Y-100661282D01*
X129726102Y-99006866D01*
X128053756Y-97334521D01*
X128020272Y-97273199D01*
X128023507Y-97208523D01*
X128037246Y-97166243D01*
X128070500Y-96956287D01*
X128070500Y-96743713D01*
X128037246Y-96533757D01*
X127971557Y-96331588D01*
X127875051Y-96142184D01*
X127875049Y-96142181D01*
X127875048Y-96142179D01*
X127750109Y-95970213D01*
X127599786Y-95819890D01*
X127427820Y-95694951D01*
X127427115Y-95694591D01*
X127419054Y-95690485D01*
X127368259Y-95642512D01*
X127351463Y-95574692D01*
X127373999Y-95508556D01*
X127419054Y-95469515D01*
X127427816Y-95465051D01*
X127449789Y-95449086D01*
X127599786Y-95340109D01*
X127599788Y-95340106D01*
X127599792Y-95340104D01*
X127750104Y-95189792D01*
X127750106Y-95189788D01*
X127750109Y-95189786D01*
X127875048Y-95017820D01*
X127875047Y-95017820D01*
X127875051Y-95017816D01*
X127971557Y-94828412D01*
X128037246Y-94626243D01*
X128070500Y-94416287D01*
X128070500Y-94203713D01*
X128037246Y-93993757D01*
X127971557Y-93791588D01*
X127875051Y-93602184D01*
X127875049Y-93602181D01*
X127875048Y-93602179D01*
X127750109Y-93430213D01*
X127599786Y-93279890D01*
X127427820Y-93154951D01*
X127427115Y-93154591D01*
X127419054Y-93150485D01*
X127368259Y-93102512D01*
X127351463Y-93034692D01*
X127373999Y-92968556D01*
X127419054Y-92929515D01*
X127427816Y-92925051D01*
X127449789Y-92909086D01*
X127599786Y-92800109D01*
X127599788Y-92800106D01*
X127599792Y-92800104D01*
X127750104Y-92649792D01*
X127750106Y-92649788D01*
X127750109Y-92649786D01*
X127875048Y-92477820D01*
X127875047Y-92477820D01*
X127875051Y-92477816D01*
X127971557Y-92288412D01*
X128037246Y-92086243D01*
X128070500Y-91876287D01*
X128070500Y-91663713D01*
X128037246Y-91453757D01*
X127971557Y-91251588D01*
X127875051Y-91062184D01*
X127875049Y-91062181D01*
X127875048Y-91062179D01*
X127750109Y-90890213D01*
X127599786Y-90739890D01*
X127427820Y-90614951D01*
X127427115Y-90614591D01*
X127419054Y-90610485D01*
X127368259Y-90562512D01*
X127351463Y-90494692D01*
X127373999Y-90428556D01*
X127419054Y-90389515D01*
X127427816Y-90385051D01*
X127477273Y-90349119D01*
X127599786Y-90260109D01*
X127599788Y-90260106D01*
X127599792Y-90260104D01*
X127750104Y-90109792D01*
X127875051Y-89937816D01*
X127886317Y-89915704D01*
X127934289Y-89864910D01*
X127996801Y-89848000D01*
X129657550Y-89848000D01*
X129724589Y-89867685D01*
X129745231Y-89884319D01*
X129829665Y-89968753D01*
X129829670Y-89968757D01*
X129966929Y-90051732D01*
X129966933Y-90051734D01*
X130021100Y-90068612D01*
X130120067Y-90099452D01*
X130186619Y-90105500D01*
X130613380Y-90105499D01*
X130613388Y-90105499D01*
X130679926Y-90099453D01*
X130679927Y-90099452D01*
X130679933Y-90099452D01*
X130833069Y-90051733D01*
X130903717Y-90009024D01*
X130970329Y-89968757D01*
X130970330Y-89968755D01*
X130970335Y-89968753D01*
X131083753Y-89855335D01*
X131093897Y-89838556D01*
X131148611Y-89748046D01*
X131166733Y-89718069D01*
X131214452Y-89564933D01*
X131220500Y-89498381D01*
X131220499Y-88996620D01*
X131220499Y-88996611D01*
X131214453Y-88930073D01*
X131214452Y-88930070D01*
X131214452Y-88930067D01*
X131166733Y-88776931D01*
X131128779Y-88714149D01*
X131110944Y-88646595D01*
X131128780Y-88585850D01*
X131166733Y-88523069D01*
X131214452Y-88369933D01*
X131220500Y-88303381D01*
X131220499Y-87801620D01*
X131220499Y-87801619D01*
X131220499Y-87801611D01*
X131214453Y-87735073D01*
X131214452Y-87735070D01*
X131214452Y-87735067D01*
X131175447Y-87609896D01*
X131166734Y-87581933D01*
X131166732Y-87581929D01*
X131083757Y-87444670D01*
X131083756Y-87444669D01*
X131083754Y-87444667D01*
X131083753Y-87444665D01*
X130970335Y-87331247D01*
X130960347Y-87325209D01*
X130913162Y-87273681D01*
X130900500Y-87219094D01*
X130900500Y-68598218D01*
X130920185Y-68531179D01*
X130968207Y-68487733D01*
X131007815Y-68467552D01*
X131007815Y-68467551D01*
X131007816Y-68467551D01*
X131099193Y-68401161D01*
X131179786Y-68342609D01*
X131179788Y-68342606D01*
X131179792Y-68342604D01*
X131330104Y-68192292D01*
X131330106Y-68192288D01*
X131330109Y-68192286D01*
X131455048Y-68020320D01*
X131455047Y-68020320D01*
X131455051Y-68020316D01*
X131459514Y-68011554D01*
X131507488Y-67960759D01*
X131575308Y-67943963D01*
X131641444Y-67966499D01*
X131680486Y-68011556D01*
X131684951Y-68020320D01*
X131809890Y-68192286D01*
X131960213Y-68342609D01*
X132132179Y-68467548D01*
X132132181Y-68467549D01*
X132132184Y-68467551D01*
X132321588Y-68564057D01*
X132523757Y-68629746D01*
X132733713Y-68663000D01*
X132733714Y-68663000D01*
X132946286Y-68663000D01*
X132946287Y-68663000D01*
X133156243Y-68629746D01*
X133358412Y-68564057D01*
X133547816Y-68467551D01*
X133620810Y-68414518D01*
X133719786Y-68342609D01*
X133719788Y-68342606D01*
X133719792Y-68342604D01*
X133870104Y-68192292D01*
X133870106Y-68192288D01*
X133870109Y-68192286D01*
X133995048Y-68020320D01*
X133995047Y-68020320D01*
X133995051Y-68020316D01*
X133999514Y-68011554D01*
X134047488Y-67960759D01*
X134115308Y-67943963D01*
X134181444Y-67966499D01*
G37*
%TD.AperFunction*%
%TA.AperFunction,Conductor*%
G36*
X140584442Y-101417685D02*
G01*
X140605084Y-101434319D01*
X140616241Y-101445476D01*
X140649726Y-101506799D01*
X140646492Y-101571473D01*
X140632753Y-101613757D01*
X140606606Y-101778846D01*
X140599500Y-101823713D01*
X140599500Y-102036287D01*
X140606294Y-102079185D01*
X140632753Y-102246239D01*
X140698444Y-102448414D01*
X140794951Y-102637820D01*
X140919890Y-102809786D01*
X141070213Y-102960109D01*
X141242182Y-103085050D01*
X141250946Y-103089516D01*
X141301742Y-103137491D01*
X141318536Y-103205312D01*
X141295998Y-103271447D01*
X141250946Y-103310484D01*
X141242182Y-103314949D01*
X141070213Y-103439890D01*
X140919890Y-103590213D01*
X140794949Y-103762182D01*
X140774663Y-103801996D01*
X140726689Y-103852791D01*
X140664179Y-103869700D01*
X137492450Y-103869700D01*
X137425411Y-103850015D01*
X137404769Y-103833381D01*
X137357834Y-103786446D01*
X137357829Y-103786442D01*
X137220570Y-103703467D01*
X137220566Y-103703465D01*
X137067433Y-103655748D01*
X137067435Y-103655748D01*
X137040812Y-103653328D01*
X137000881Y-103649700D01*
X137000878Y-103649700D01*
X136499111Y-103649700D01*
X136432573Y-103655746D01*
X136432572Y-103655746D01*
X136316389Y-103691950D01*
X136246529Y-103693100D01*
X136187137Y-103656299D01*
X136157069Y-103593230D01*
X136155500Y-103573564D01*
X136155500Y-101779499D01*
X136175185Y-101712460D01*
X136227989Y-101666705D01*
X136279496Y-101655499D01*
X136613380Y-101655499D01*
X136613388Y-101655499D01*
X136679926Y-101649453D01*
X136679927Y-101649452D01*
X136679933Y-101649452D01*
X136833069Y-101601733D01*
X136903717Y-101559024D01*
X136970329Y-101518757D01*
X136970330Y-101518755D01*
X136970335Y-101518753D01*
X137054769Y-101434319D01*
X137116092Y-101400834D01*
X137142450Y-101398000D01*
X140517403Y-101398000D01*
X140584442Y-101417685D01*
G37*
%TD.AperFunction*%
%TA.AperFunction,Conductor*%
G36*
X137278363Y-71131259D02*
G01*
X137315082Y-71190702D01*
X137319500Y-71223507D01*
X137319500Y-98939827D01*
X137299815Y-99006866D01*
X137247011Y-99052621D01*
X137177853Y-99062565D01*
X137114297Y-99033540D01*
X137102871Y-99022265D01*
X137095284Y-99013741D01*
X137083753Y-98994665D01*
X137034257Y-98945169D01*
X137031871Y-98942488D01*
X137018414Y-98914025D01*
X137003334Y-98886408D01*
X137002738Y-98880869D01*
X137002007Y-98879322D01*
X137002316Y-98876945D01*
X137000500Y-98860050D01*
X137000500Y-71329765D01*
X137020185Y-71262726D01*
X137021398Y-71260874D01*
X137092398Y-71154616D01*
X137146011Y-71109811D01*
X137215336Y-71101104D01*
X137278363Y-71131259D01*
G37*
%TD.AperFunction*%
%TA.AperFunction,Conductor*%
G36*
X125327942Y-68682684D02*
G01*
X125373697Y-68735488D01*
X125383641Y-68804646D01*
X125354616Y-68868202D01*
X125348584Y-68874680D01*
X124019481Y-70203782D01*
X124019477Y-70203787D01*
X123981551Y-70269479D01*
X123940424Y-70340711D01*
X123940423Y-70340712D01*
X123915868Y-70432351D01*
X123899499Y-70493443D01*
X123899499Y-70493445D01*
X123899499Y-70661546D01*
X123899500Y-70661559D01*
X123899500Y-85593234D01*
X123879815Y-85660273D01*
X123878602Y-85662125D01*
X123790609Y-85793814D01*
X123790604Y-85793824D01*
X123729375Y-85941645D01*
X123685534Y-85996048D01*
X123619240Y-86018113D01*
X123551540Y-86000834D01*
X123550740Y-86000354D01*
X123492767Y-85965308D01*
X123465566Y-85948865D01*
X123312433Y-85901148D01*
X123312435Y-85901148D01*
X123285812Y-85898728D01*
X123245881Y-85895100D01*
X123245878Y-85895100D01*
X122744111Y-85895100D01*
X122677573Y-85901146D01*
X122677572Y-85901146D01*
X122561389Y-85937350D01*
X122491529Y-85938500D01*
X122432137Y-85901699D01*
X122402069Y-85838630D01*
X122400500Y-85818964D01*
X122400500Y-71032596D01*
X122420185Y-70965557D01*
X122436814Y-70944920D01*
X124682416Y-68699317D01*
X124743739Y-68665833D01*
X124770097Y-68662999D01*
X125260903Y-68662999D01*
X125327942Y-68682684D01*
G37*
%TD.AperFunction*%
%TA.AperFunction,Conductor*%
G36*
X136721444Y-67966499D02*
G01*
X136760486Y-68011556D01*
X136764951Y-68020320D01*
X136889890Y-68192286D01*
X137040213Y-68342609D01*
X137212184Y-68467551D01*
X137212184Y-68467552D01*
X137251793Y-68487733D01*
X137302590Y-68535706D01*
X137319500Y-68598218D01*
X137319500Y-70276492D01*
X137299815Y-70343531D01*
X137247011Y-70389286D01*
X137177853Y-70399230D01*
X137114297Y-70370205D01*
X137092398Y-70345383D01*
X137021789Y-70239711D01*
X137021786Y-70239707D01*
X136910292Y-70128213D01*
X136910288Y-70128210D01*
X136779185Y-70040609D01*
X136779172Y-70040602D01*
X136633501Y-69980264D01*
X136633489Y-69980261D01*
X136478845Y-69949500D01*
X136478842Y-69949500D01*
X136321158Y-69949500D01*
X136321156Y-69949500D01*
X136303688Y-69952974D01*
X136234096Y-69946744D01*
X136178920Y-69903880D01*
X136155678Y-69837989D01*
X136155500Y-69831356D01*
X136155500Y-68481557D01*
X136175185Y-68414518D01*
X136206616Y-68381238D01*
X136259788Y-68342607D01*
X136259788Y-68342606D01*
X136259792Y-68342604D01*
X136410104Y-68192292D01*
X136410106Y-68192288D01*
X136410109Y-68192286D01*
X136535048Y-68020320D01*
X136535047Y-68020320D01*
X136535051Y-68020316D01*
X136539514Y-68011554D01*
X136587488Y-67960759D01*
X136655308Y-67943963D01*
X136721444Y-67966499D01*
G37*
%TD.AperFunction*%
%TA.AperFunction,Conductor*%
G36*
X161442539Y-64645185D02*
G01*
X161488294Y-64697989D01*
X161499500Y-64749500D01*
X161499500Y-118450500D01*
X161479815Y-118517539D01*
X161427011Y-118563294D01*
X161375500Y-118574500D01*
X111624500Y-118574500D01*
X111557461Y-118554815D01*
X111511706Y-118502011D01*
X111500500Y-118450500D01*
X111500500Y-100813657D01*
X122290000Y-100813657D01*
X122292921Y-100850777D01*
X122292922Y-100850783D01*
X122339091Y-101009694D01*
X122339092Y-101009697D01*
X122423333Y-101152142D01*
X122423339Y-101152150D01*
X122540349Y-101269160D01*
X122540357Y-101269166D01*
X122682802Y-101353407D01*
X122682805Y-101353409D01*
X122841717Y-101399577D01*
X122841724Y-101399579D01*
X122849998Y-101400229D01*
X122850000Y-101400228D01*
X123350000Y-101400228D01*
X123350001Y-101400229D01*
X123358275Y-101399579D01*
X123358282Y-101399577D01*
X123517194Y-101353409D01*
X123517197Y-101353407D01*
X123659642Y-101269166D01*
X123659650Y-101269160D01*
X123776660Y-101152150D01*
X123776666Y-101152142D01*
X123860907Y-101009697D01*
X123860908Y-101009694D01*
X123907077Y-100850783D01*
X123907078Y-100850777D01*
X123909999Y-100813657D01*
X123910000Y-100813642D01*
X123910000Y-100785000D01*
X123350000Y-100785000D01*
X123350000Y-101400228D01*
X122850000Y-101400228D01*
X122850000Y-100785000D01*
X122290000Y-100785000D01*
X122290000Y-100813657D01*
X111500500Y-100813657D01*
X111500500Y-96753713D01*
X115649500Y-96753713D01*
X115649500Y-96966286D01*
X115681169Y-97166240D01*
X115682754Y-97176243D01*
X115745194Y-97368414D01*
X115748444Y-97378414D01*
X115844951Y-97567820D01*
X115969890Y-97739786D01*
X116120213Y-97890109D01*
X116292182Y-98015050D01*
X116300946Y-98019516D01*
X116351742Y-98067491D01*
X116368536Y-98135312D01*
X116345998Y-98201447D01*
X116300946Y-98240484D01*
X116292182Y-98244949D01*
X116120213Y-98369890D01*
X115969890Y-98520213D01*
X115844951Y-98692179D01*
X115748444Y-98881585D01*
X115682753Y-99083760D01*
X115649500Y-99293713D01*
X115649500Y-99506286D01*
X115681169Y-99706239D01*
X115682754Y-99716243D01*
X115745194Y-99908414D01*
X115748444Y-99918414D01*
X115844951Y-100107820D01*
X115969890Y-100279786D01*
X116120213Y-100430109D01*
X116292179Y-100555048D01*
X116292181Y-100555049D01*
X116292184Y-100555051D01*
X116481588Y-100651557D01*
X116683757Y-100717246D01*
X116893713Y-100750500D01*
X116893714Y-100750500D01*
X117106286Y-100750500D01*
X117106287Y-100750500D01*
X117316243Y-100717246D01*
X117518412Y-100651557D01*
X117707816Y-100555051D01*
X117729789Y-100539086D01*
X117879786Y-100430109D01*
X117879788Y-100430106D01*
X117879792Y-100430104D01*
X118030104Y-100279792D01*
X118030106Y-100279788D01*
X118030109Y-100279786D01*
X118112245Y-100166734D01*
X118155051Y-100107816D01*
X118155349Y-100107230D01*
X118175235Y-100068205D01*
X118223209Y-100017409D01*
X118285719Y-100000500D01*
X119437550Y-100000500D01*
X119504589Y-100020185D01*
X119525231Y-100036819D01*
X119572165Y-100083753D01*
X119572170Y-100083757D01*
X119709429Y-100166732D01*
X119709433Y-100166734D01*
X119748303Y-100178846D01*
X119862567Y-100214452D01*
X119929119Y-100220500D01*
X120430880Y-100220499D01*
X120430888Y-100220499D01*
X120497426Y-100214453D01*
X120497427Y-100214452D01*
X120497433Y-100214452D01*
X120650569Y-100166733D01*
X120713350Y-100128779D01*
X120780905Y-100110944D01*
X120841649Y-100128779D01*
X120904431Y-100166733D01*
X120904434Y-100166734D01*
X120904433Y-100166734D01*
X120943303Y-100178846D01*
X121057567Y-100214452D01*
X121124119Y-100220500D01*
X121625880Y-100220499D01*
X121625888Y-100220499D01*
X121692426Y-100214453D01*
X121692427Y-100214452D01*
X121692433Y-100214452D01*
X121845569Y-100166733D01*
X121927431Y-100117246D01*
X121982829Y-100083757D01*
X121982830Y-100083755D01*
X121982835Y-100083753D01*
X122029769Y-100036819D01*
X122056696Y-100022115D01*
X122082515Y-100005523D01*
X122088715Y-100004631D01*
X122091092Y-100003334D01*
X122117450Y-100000500D01*
X122191314Y-100000500D01*
X122258353Y-100020185D01*
X122304108Y-100072989D01*
X122314052Y-100142147D01*
X122310390Y-100159095D01*
X122292922Y-100219216D01*
X122292921Y-100219222D01*
X122290000Y-100256342D01*
X122290000Y-100285000D01*
X123910000Y-100285000D01*
X123910000Y-100256357D01*
X123909999Y-100256342D01*
X123907078Y-100219222D01*
X123907077Y-100219216D01*
X123886705Y-100149095D01*
X123886904Y-100079225D01*
X123924846Y-100020555D01*
X123988485Y-99991712D01*
X124005781Y-99990500D01*
X125434281Y-99990500D01*
X125501320Y-100010185D01*
X125544765Y-100058205D01*
X125564947Y-100097814D01*
X125564948Y-100097815D01*
X125689890Y-100269786D01*
X125840213Y-100420109D01*
X126012182Y-100545050D01*
X126020946Y-100549516D01*
X126071742Y-100597491D01*
X126088536Y-100665312D01*
X126065998Y-100731447D01*
X126020946Y-100770484D01*
X126012182Y-100774949D01*
X125840213Y-100899890D01*
X125689890Y-101050213D01*
X125564951Y-101222179D01*
X125468444Y-101411585D01*
X125402753Y-101613760D01*
X125376606Y-101778846D01*
X125369500Y-101823713D01*
X125369500Y-102036287D01*
X125376294Y-102079185D01*
X125402753Y-102246239D01*
X125468444Y-102448414D01*
X125564951Y-102637820D01*
X125689890Y-102809786D01*
X125840213Y-102960109D01*
X126012182Y-103085050D01*
X126020946Y-103089516D01*
X126071742Y-103137491D01*
X126088536Y-103205312D01*
X126065998Y-103271447D01*
X126020946Y-103310484D01*
X126012182Y-103314949D01*
X125840213Y-103439890D01*
X125689890Y-103590213D01*
X125564951Y-103762179D01*
X125468444Y-103951585D01*
X125402753Y-104153760D01*
X125369500Y-104363713D01*
X125369500Y-104576286D01*
X125397034Y-104750133D01*
X125402754Y-104786243D01*
X125440778Y-104903269D01*
X125468444Y-104988414D01*
X125564951Y-105177820D01*
X125689890Y-105349786D01*
X125840213Y-105500109D01*
X126012179Y-105625048D01*
X126012181Y-105625049D01*
X126012184Y-105625051D01*
X126021493Y-105629794D01*
X126072290Y-105677766D01*
X126089087Y-105745587D01*
X126066552Y-105811722D01*
X126021505Y-105850760D01*
X126012446Y-105855376D01*
X126012440Y-105855380D01*
X125958282Y-105894727D01*
X125958282Y-105894728D01*
X126590591Y-106527037D01*
X126527007Y-106544075D01*
X126412993Y-106609901D01*
X126319901Y-106702993D01*
X126254075Y-106817007D01*
X126237037Y-106880591D01*
X125604728Y-106248282D01*
X125604727Y-106248282D01*
X125565380Y-106302439D01*
X125468904Y-106491782D01*
X125403242Y-106693869D01*
X125403242Y-106693872D01*
X125370000Y-106903753D01*
X125370000Y-107116246D01*
X125403242Y-107326127D01*
X125403242Y-107326130D01*
X125468904Y-107528217D01*
X125565375Y-107717550D01*
X125604728Y-107771716D01*
X126237037Y-107139408D01*
X126254075Y-107202993D01*
X126319901Y-107317007D01*
X126412993Y-107410099D01*
X126527007Y-107475925D01*
X126590590Y-107492962D01*
X125958282Y-108125269D01*
X125958282Y-108125270D01*
X126012452Y-108164626D01*
X126012451Y-108164626D01*
X126021495Y-108169234D01*
X126072292Y-108217208D01*
X126089087Y-108285029D01*
X126066550Y-108351164D01*
X126021499Y-108390202D01*
X126012182Y-108394949D01*
X125840213Y-108519890D01*
X125689890Y-108670213D01*
X125564951Y-108842179D01*
X125468444Y-109031585D01*
X125402753Y-109233760D01*
X125369500Y-109443713D01*
X125369500Y-109656287D01*
X125402754Y-109866243D01*
X125435839Y-109968069D01*
X125468444Y-110068414D01*
X125564951Y-110257820D01*
X125689890Y-110429786D01*
X125840213Y-110580109D01*
X126012179Y-110705048D01*
X126012181Y-110705049D01*
X126012184Y-110705051D01*
X126201588Y-110801557D01*
X126403757Y-110867246D01*
X126613713Y-110900500D01*
X126613714Y-110900500D01*
X126826286Y-110900500D01*
X126826287Y-110900500D01*
X127036243Y-110867246D01*
X127238412Y-110801557D01*
X127427816Y-110705051D01*
X127449789Y-110689086D01*
X127599786Y-110580109D01*
X127599788Y-110580106D01*
X127599792Y-110580104D01*
X127750104Y-110429792D01*
X127750106Y-110429788D01*
X127750109Y-110429786D01*
X127875048Y-110257820D01*
X127875047Y-110257820D01*
X127875051Y-110257816D01*
X127971557Y-110068412D01*
X128037246Y-109866243D01*
X128070500Y-109656287D01*
X128070500Y-109443713D01*
X128037246Y-109233757D01*
X127971557Y-109031588D01*
X127875051Y-108842184D01*
X127875049Y-108842181D01*
X127875048Y-108842179D01*
X127750109Y-108670213D01*
X127599786Y-108519890D01*
X127427817Y-108394949D01*
X127418504Y-108390204D01*
X127367707Y-108342230D01*
X127350912Y-108274409D01*
X127373449Y-108208274D01*
X127418507Y-108169232D01*
X127427555Y-108164622D01*
X127481716Y-108125270D01*
X127481717Y-108125270D01*
X126849408Y-107492962D01*
X126912993Y-107475925D01*
X127027007Y-107410099D01*
X127120099Y-107317007D01*
X127185925Y-107202993D01*
X127202962Y-107139408D01*
X127835270Y-107771717D01*
X127835270Y-107771716D01*
X127874622Y-107717554D01*
X127971095Y-107528217D01*
X128036757Y-107326130D01*
X128036757Y-107326127D01*
X128070000Y-107116246D01*
X128070000Y-106903753D01*
X128036757Y-106693872D01*
X128036757Y-106693869D01*
X127971095Y-106491782D01*
X127874624Y-106302449D01*
X127835270Y-106248282D01*
X127835269Y-106248282D01*
X127202962Y-106880590D01*
X127185925Y-106817007D01*
X127120099Y-106702993D01*
X127027007Y-106609901D01*
X126912993Y-106544075D01*
X126849409Y-106527037D01*
X127481716Y-105894728D01*
X127427547Y-105855373D01*
X127427547Y-105855372D01*
X127418500Y-105850763D01*
X127367706Y-105802788D01*
X127350912Y-105734966D01*
X127373451Y-105668832D01*
X127418508Y-105629793D01*
X127427816Y-105625051D01*
X127556187Y-105531785D01*
X127599786Y-105500109D01*
X127599788Y-105500106D01*
X127599792Y-105500104D01*
X127750104Y-105349792D01*
X127750106Y-105349788D01*
X127750109Y-105349786D01*
X127875048Y-105177820D01*
X127875047Y-105177820D01*
X127875051Y-105177816D01*
X127971557Y-104988412D01*
X128037246Y-104786243D01*
X128070500Y-104576287D01*
X128070500Y-104363713D01*
X128037246Y-104153757D01*
X127971557Y-103951588D01*
X127875051Y-103762184D01*
X127875049Y-103762181D01*
X127875048Y-103762179D01*
X127750109Y-103590213D01*
X127599786Y-103439890D01*
X127427820Y-103314951D01*
X127427115Y-103314591D01*
X127419054Y-103310485D01*
X127368259Y-103262512D01*
X127351463Y-103194692D01*
X127373999Y-103128556D01*
X127419054Y-103089515D01*
X127427816Y-103085051D01*
X127449789Y-103069086D01*
X127599786Y-102960109D01*
X127599788Y-102960106D01*
X127599792Y-102960104D01*
X127750104Y-102809792D01*
X127750106Y-102809788D01*
X127750109Y-102809786D01*
X127875048Y-102637820D01*
X127875047Y-102637820D01*
X127875051Y-102637816D01*
X127971557Y-102448412D01*
X128037246Y-102246243D01*
X128070500Y-102036287D01*
X128070500Y-101823713D01*
X128037246Y-101613757D01*
X127971557Y-101411588D01*
X127875051Y-101222184D01*
X127875049Y-101222181D01*
X127875048Y-101222179D01*
X127750109Y-101050213D01*
X127599786Y-100899890D01*
X127427820Y-100774951D01*
X127427115Y-100774591D01*
X127419054Y-100770485D01*
X127368259Y-100722512D01*
X127351463Y-100654692D01*
X127373999Y-100588556D01*
X127419054Y-100549515D01*
X127427816Y-100545051D01*
X127449789Y-100529086D01*
X127599786Y-100420109D01*
X127599788Y-100420106D01*
X127599792Y-100420104D01*
X127750104Y-100269792D01*
X127750106Y-100269788D01*
X127750109Y-100269786D01*
X127875048Y-100097820D01*
X127875047Y-100097820D01*
X127875051Y-100097816D01*
X127971557Y-99908412D01*
X128037246Y-99706243D01*
X128070500Y-99496287D01*
X128070500Y-99349097D01*
X128090185Y-99282058D01*
X128142989Y-99236303D01*
X128212147Y-99226359D01*
X128275703Y-99255384D01*
X128282168Y-99261404D01*
X129155328Y-100134563D01*
X130263181Y-101242416D01*
X130296666Y-101303739D01*
X130299500Y-101330097D01*
X130299500Y-105213330D01*
X130299499Y-105213348D01*
X130299499Y-105379054D01*
X130299498Y-105379054D01*
X130340423Y-105531785D01*
X130369358Y-105581900D01*
X130369359Y-105581904D01*
X130369360Y-105581904D01*
X130394270Y-105625051D01*
X130419479Y-105668714D01*
X130419481Y-105668717D01*
X130538349Y-105787585D01*
X130538355Y-105787590D01*
X139765139Y-115014374D01*
X139765149Y-115014385D01*
X139769479Y-115018715D01*
X139769480Y-115018716D01*
X139881284Y-115130520D01*
X139946917Y-115168412D01*
X139968095Y-115180639D01*
X139968097Y-115180641D01*
X140006151Y-115202611D01*
X140018215Y-115209577D01*
X140170943Y-115250501D01*
X140170946Y-115250501D01*
X140336654Y-115250501D01*
X140336670Y-115250500D01*
X146429281Y-115250500D01*
X146496320Y-115270185D01*
X146539765Y-115318205D01*
X146559947Y-115357814D01*
X146559948Y-115357815D01*
X146684890Y-115529786D01*
X146835213Y-115680109D01*
X147007179Y-115805048D01*
X147007181Y-115805049D01*
X147007184Y-115805051D01*
X147196588Y-115901557D01*
X147398757Y-115967246D01*
X147608713Y-116000500D01*
X147608714Y-116000500D01*
X147821286Y-116000500D01*
X147821287Y-116000500D01*
X148031243Y-115967246D01*
X148233412Y-115901557D01*
X148422816Y-115805051D01*
X148444789Y-115789086D01*
X148594786Y-115680109D01*
X148594788Y-115680106D01*
X148594792Y-115680104D01*
X148745104Y-115529792D01*
X148745106Y-115529788D01*
X148745109Y-115529786D01*
X148870048Y-115357820D01*
X148870047Y-115357820D01*
X148870051Y-115357816D01*
X148966557Y-115168412D01*
X149032246Y-114966243D01*
X149065500Y-114756287D01*
X149065500Y-114543713D01*
X149032246Y-114333757D01*
X148966557Y-114131588D01*
X148870051Y-113942184D01*
X148870049Y-113942181D01*
X148870048Y-113942179D01*
X148745109Y-113770213D01*
X148594786Y-113619890D01*
X148422820Y-113494951D01*
X148422115Y-113494591D01*
X148414054Y-113490485D01*
X148363259Y-113442512D01*
X148346463Y-113374692D01*
X148368999Y-113308556D01*
X148414054Y-113269515D01*
X148422816Y-113265051D01*
X148444789Y-113249086D01*
X148594786Y-113140109D01*
X148594788Y-113140106D01*
X148594792Y-113140104D01*
X148745104Y-112989792D01*
X148745106Y-112989788D01*
X148745109Y-112989786D01*
X148870048Y-112817820D01*
X148870047Y-112817820D01*
X148870051Y-112817816D01*
X148966557Y-112628412D01*
X149032246Y-112426243D01*
X149065500Y-112216287D01*
X149065500Y-112003713D01*
X149032246Y-111793757D01*
X148966557Y-111591588D01*
X148870051Y-111402184D01*
X148870049Y-111402181D01*
X148870048Y-111402179D01*
X148745109Y-111230213D01*
X148594786Y-111079890D01*
X148422820Y-110954951D01*
X148422115Y-110954591D01*
X148414054Y-110950485D01*
X148363259Y-110902512D01*
X148346463Y-110834692D01*
X148368999Y-110768556D01*
X148414054Y-110729515D01*
X148422816Y-110725051D01*
X148450348Y-110705048D01*
X148594786Y-110600109D01*
X148594788Y-110600106D01*
X148594792Y-110600104D01*
X148745104Y-110449792D01*
X148745106Y-110449788D01*
X148745109Y-110449786D01*
X148870048Y-110277820D01*
X148870047Y-110277820D01*
X148870051Y-110277816D01*
X148966557Y-110088412D01*
X149032246Y-109886243D01*
X149065500Y-109676287D01*
X149065500Y-109463713D01*
X149032246Y-109253757D01*
X148966557Y-109051588D01*
X148870051Y-108862184D01*
X148870049Y-108862181D01*
X148870048Y-108862179D01*
X148745109Y-108690213D01*
X148631181Y-108576285D01*
X148597696Y-108514962D01*
X148602680Y-108445270D01*
X148644552Y-108389337D01*
X148675529Y-108372422D01*
X148807086Y-108323354D01*
X148807093Y-108323350D01*
X148922187Y-108237190D01*
X148922190Y-108237187D01*
X149008350Y-108122093D01*
X149008354Y-108122086D01*
X149058596Y-107987379D01*
X149058598Y-107987372D01*
X149064999Y-107927844D01*
X149065000Y-107927827D01*
X149065000Y-107280000D01*
X148148012Y-107280000D01*
X148180925Y-107222993D01*
X148215000Y-107095826D01*
X148215000Y-106964174D01*
X148180925Y-106837007D01*
X148148012Y-106780000D01*
X149065000Y-106780000D01*
X149065000Y-106132172D01*
X149064999Y-106132155D01*
X149058598Y-106072627D01*
X149058596Y-106072620D01*
X149008354Y-105937913D01*
X149008350Y-105937906D01*
X148922190Y-105822812D01*
X148922187Y-105822809D01*
X148807093Y-105736649D01*
X148807086Y-105736645D01*
X148672379Y-105686403D01*
X148672372Y-105686401D01*
X148612844Y-105680000D01*
X147965000Y-105680000D01*
X147965000Y-106596988D01*
X147907993Y-106564075D01*
X147780826Y-106530000D01*
X147649174Y-106530000D01*
X147522007Y-106564075D01*
X147465000Y-106596988D01*
X147465000Y-105680000D01*
X146817155Y-105680000D01*
X146757627Y-105686401D01*
X146757620Y-105686403D01*
X146622913Y-105736645D01*
X146622906Y-105736649D01*
X146507812Y-105822809D01*
X146507809Y-105822812D01*
X146421649Y-105937906D01*
X146421645Y-105937913D01*
X146371403Y-106072620D01*
X146371401Y-106072627D01*
X146365000Y-106132155D01*
X146365000Y-106780000D01*
X147281988Y-106780000D01*
X147249075Y-106837007D01*
X147215000Y-106964174D01*
X147215000Y-107095826D01*
X147249075Y-107222993D01*
X147281988Y-107280000D01*
X146325597Y-107280000D01*
X146258558Y-107260315D01*
X146237916Y-107243681D01*
X145536819Y-106542584D01*
X145503334Y-106481261D01*
X145500500Y-106454903D01*
X145500500Y-102279765D01*
X145520185Y-102212726D01*
X145521398Y-102210874D01*
X145609390Y-102079185D01*
X145609390Y-102079184D01*
X145609394Y-102079179D01*
X145669737Y-101933497D01*
X145700500Y-101778842D01*
X145700500Y-101621158D01*
X145700500Y-101621155D01*
X145700499Y-101621153D01*
X145669738Y-101466510D01*
X145669737Y-101466503D01*
X145669735Y-101466498D01*
X145609397Y-101320827D01*
X145609390Y-101320814D01*
X145521789Y-101189711D01*
X145521786Y-101189707D01*
X145410292Y-101078213D01*
X145410288Y-101078210D01*
X145279185Y-100990609D01*
X145279172Y-100990602D01*
X145133501Y-100930264D01*
X145133491Y-100930261D01*
X145000308Y-100903769D01*
X144972177Y-100889054D01*
X144943297Y-100875865D01*
X144941440Y-100872975D01*
X144938397Y-100871384D01*
X144922684Y-100843791D01*
X144905523Y-100817087D01*
X144904862Y-100812493D01*
X144903823Y-100810668D01*
X144900500Y-100782152D01*
X144900500Y-100679765D01*
X144920185Y-100612726D01*
X144921398Y-100610874D01*
X144936311Y-100588556D01*
X145009394Y-100479179D01*
X145069737Y-100333497D01*
X145100500Y-100178842D01*
X145100500Y-100021158D01*
X145100500Y-100021155D01*
X145100499Y-100021153D01*
X145087350Y-99955048D01*
X145069737Y-99866503D01*
X145054660Y-99830104D01*
X145009397Y-99720827D01*
X145009390Y-99720814D01*
X144924248Y-99593391D01*
X144903370Y-99526714D01*
X144921854Y-99459334D01*
X144973833Y-99412643D01*
X145027350Y-99400500D01*
X146614281Y-99400500D01*
X146681320Y-99420185D01*
X146724765Y-99468205D01*
X146744947Y-99507814D01*
X146744948Y-99507815D01*
X146869890Y-99679786D01*
X147020213Y-99830109D01*
X147192179Y-99955048D01*
X147192181Y-99955049D01*
X147192184Y-99955051D01*
X147381588Y-100051557D01*
X147583757Y-100117246D01*
X147793713Y-100150500D01*
X147793714Y-100150500D01*
X148006286Y-100150500D01*
X148006287Y-100150500D01*
X148216243Y-100117246D01*
X148418412Y-100051557D01*
X148607816Y-99955051D01*
X148672010Y-99908412D01*
X148779786Y-99830109D01*
X148779788Y-99830106D01*
X148779792Y-99830104D01*
X148930104Y-99679792D01*
X148930106Y-99679788D01*
X148930109Y-99679786D01*
X149055048Y-99507820D01*
X149055047Y-99507820D01*
X149055051Y-99507816D01*
X149151557Y-99318412D01*
X149217246Y-99116243D01*
X149250500Y-98906287D01*
X149250500Y-98693713D01*
X149217246Y-98483757D01*
X149151557Y-98281588D01*
X149055051Y-98092184D01*
X149055049Y-98092181D01*
X149055048Y-98092179D01*
X148930109Y-97920213D01*
X148779786Y-97769890D01*
X148607820Y-97644951D01*
X148607115Y-97644591D01*
X148599054Y-97640485D01*
X148548259Y-97592512D01*
X148531463Y-97524692D01*
X148553999Y-97458556D01*
X148599054Y-97419515D01*
X148607816Y-97415051D01*
X148672010Y-97368412D01*
X148779786Y-97290109D01*
X148779788Y-97290106D01*
X148779792Y-97290104D01*
X148930104Y-97139792D01*
X148930106Y-97139788D01*
X148930109Y-97139786D01*
X149055048Y-96967820D01*
X149055047Y-96967820D01*
X149055051Y-96967816D01*
X149151557Y-96778412D01*
X149217246Y-96576243D01*
X149250500Y-96366287D01*
X149250500Y-96153713D01*
X149217246Y-95943757D01*
X149151557Y-95741588D01*
X149055051Y-95552184D01*
X149055049Y-95552181D01*
X149055048Y-95552179D01*
X148930109Y-95380213D01*
X148779786Y-95229890D01*
X148607820Y-95104951D01*
X148607115Y-95104591D01*
X148599054Y-95100485D01*
X148548259Y-95052512D01*
X148531463Y-94984692D01*
X148553999Y-94918556D01*
X148599054Y-94879515D01*
X148607816Y-94875051D01*
X148683588Y-94820000D01*
X148779786Y-94750109D01*
X148779788Y-94750106D01*
X148779792Y-94750104D01*
X148930104Y-94599792D01*
X148930106Y-94599788D01*
X148930109Y-94599786D01*
X149055048Y-94427820D01*
X149055047Y-94427820D01*
X149055051Y-94427816D01*
X149151557Y-94238412D01*
X149217246Y-94036243D01*
X149250500Y-93826287D01*
X149250500Y-93613713D01*
X149217246Y-93403757D01*
X149151557Y-93201588D01*
X149055051Y-93012184D01*
X149055049Y-93012181D01*
X149055048Y-93012179D01*
X148930109Y-92840213D01*
X148779786Y-92689890D01*
X148607820Y-92564951D01*
X148607115Y-92564591D01*
X148599054Y-92560485D01*
X148548259Y-92512512D01*
X148531463Y-92444692D01*
X148553999Y-92378556D01*
X148599054Y-92339515D01*
X148607816Y-92335051D01*
X148703449Y-92265570D01*
X148779786Y-92210109D01*
X148779788Y-92210106D01*
X148779792Y-92210104D01*
X148930104Y-92059792D01*
X148930106Y-92059788D01*
X148930109Y-92059786D01*
X149055048Y-91887820D01*
X149055047Y-91887820D01*
X149055051Y-91887816D01*
X149151557Y-91698412D01*
X149217246Y-91496243D01*
X149250500Y-91286287D01*
X149250500Y-91073713D01*
X149217246Y-90863757D01*
X149151557Y-90661588D01*
X149055051Y-90472184D01*
X149055049Y-90472181D01*
X149055048Y-90472179D01*
X148930109Y-90300213D01*
X148779786Y-90149890D01*
X148607820Y-90024951D01*
X148607115Y-90024591D01*
X148599054Y-90020485D01*
X148548259Y-89972512D01*
X148531463Y-89904692D01*
X148553999Y-89838556D01*
X148599054Y-89799515D01*
X148607816Y-89795051D01*
X148672511Y-89748048D01*
X148779786Y-89670109D01*
X148779788Y-89670106D01*
X148779792Y-89670104D01*
X148930104Y-89519792D01*
X148930106Y-89519788D01*
X148930109Y-89519786D01*
X149055048Y-89347820D01*
X149055047Y-89347820D01*
X149055051Y-89347816D01*
X149151557Y-89158412D01*
X149217246Y-88956243D01*
X149250500Y-88746287D01*
X149250500Y-88533713D01*
X149217246Y-88323757D01*
X149151557Y-88121588D01*
X149055051Y-87932184D01*
X149055049Y-87932181D01*
X149055048Y-87932179D01*
X148930109Y-87760213D01*
X148779786Y-87609890D01*
X148607820Y-87484951D01*
X148604595Y-87483308D01*
X148599054Y-87480485D01*
X148548259Y-87432512D01*
X148531463Y-87364692D01*
X148553999Y-87298556D01*
X148599054Y-87259515D01*
X148607816Y-87255051D01*
X148697352Y-87190000D01*
X148779786Y-87130109D01*
X148779788Y-87130106D01*
X148779792Y-87130104D01*
X148930104Y-86979792D01*
X148930106Y-86979788D01*
X148930109Y-86979786D01*
X149055048Y-86807820D01*
X149055047Y-86807820D01*
X149055051Y-86807816D01*
X149151557Y-86618412D01*
X149217246Y-86416243D01*
X149250500Y-86206287D01*
X149250500Y-85993713D01*
X149217246Y-85783757D01*
X149151557Y-85581588D01*
X149055051Y-85392184D01*
X149055049Y-85392181D01*
X149055048Y-85392179D01*
X148930109Y-85220213D01*
X148779786Y-85069890D01*
X148607820Y-84944951D01*
X148607115Y-84944591D01*
X148599054Y-84940485D01*
X148548259Y-84892512D01*
X148531463Y-84824692D01*
X148553999Y-84758556D01*
X148599054Y-84719515D01*
X148607816Y-84715051D01*
X148672010Y-84668412D01*
X148779786Y-84590109D01*
X148779788Y-84590106D01*
X148779792Y-84590104D01*
X148930104Y-84439792D01*
X148930106Y-84439788D01*
X148930109Y-84439786D01*
X149055048Y-84267820D01*
X149055047Y-84267820D01*
X149055051Y-84267816D01*
X149151557Y-84078412D01*
X149217246Y-83876243D01*
X149250500Y-83666287D01*
X149250500Y-83453713D01*
X149217246Y-83243757D01*
X149151557Y-83041588D01*
X149055051Y-82852184D01*
X149055049Y-82852181D01*
X149055048Y-82852179D01*
X148930109Y-82680213D01*
X148816181Y-82566285D01*
X148782696Y-82504962D01*
X148787680Y-82435270D01*
X148829552Y-82379337D01*
X148860529Y-82362422D01*
X148992086Y-82313354D01*
X148992093Y-82313350D01*
X149107187Y-82227190D01*
X149107190Y-82227187D01*
X149193350Y-82112093D01*
X149193354Y-82112086D01*
X149243596Y-81977379D01*
X149243598Y-81977372D01*
X149249999Y-81917844D01*
X149250000Y-81917827D01*
X149250000Y-81270000D01*
X148333012Y-81270000D01*
X148365925Y-81212993D01*
X148400000Y-81085826D01*
X148400000Y-80954174D01*
X148365925Y-80827007D01*
X148333012Y-80770000D01*
X149250000Y-80770000D01*
X149250000Y-80122172D01*
X149249999Y-80122155D01*
X149243598Y-80062627D01*
X149243596Y-80062620D01*
X149193354Y-79927913D01*
X149193350Y-79927906D01*
X149107190Y-79812812D01*
X149107187Y-79812809D01*
X148992093Y-79726649D01*
X148992086Y-79726645D01*
X148857379Y-79676403D01*
X148857372Y-79676401D01*
X148797844Y-79670000D01*
X148150000Y-79670000D01*
X148150000Y-80586988D01*
X148092993Y-80554075D01*
X147965826Y-80520000D01*
X147834174Y-80520000D01*
X147707007Y-80554075D01*
X147650000Y-80586988D01*
X147650000Y-79670000D01*
X147002155Y-79670000D01*
X146942627Y-79676401D01*
X146942620Y-79676403D01*
X146807913Y-79726645D01*
X146807906Y-79726649D01*
X146692812Y-79812809D01*
X146692809Y-79812812D01*
X146606649Y-79927906D01*
X146606645Y-79927913D01*
X146556403Y-80062620D01*
X146556401Y-80062627D01*
X146550000Y-80122155D01*
X146550000Y-80770000D01*
X147466988Y-80770000D01*
X147434075Y-80827007D01*
X147400000Y-80954174D01*
X147400000Y-81085826D01*
X147434075Y-81212993D01*
X147466988Y-81270000D01*
X146550000Y-81270000D01*
X146550000Y-81917844D01*
X146556401Y-81977372D01*
X146556403Y-81977379D01*
X146606645Y-82112086D01*
X146606649Y-82112093D01*
X146692809Y-82227187D01*
X146692812Y-82227190D01*
X146807906Y-82313350D01*
X146807913Y-82313354D01*
X146939470Y-82362422D01*
X146995404Y-82404293D01*
X147019821Y-82469758D01*
X147004969Y-82538031D01*
X146983819Y-82566285D01*
X146869889Y-82680215D01*
X146744951Y-82852179D01*
X146648444Y-83041585D01*
X146582753Y-83243760D01*
X146549500Y-83453713D01*
X146549500Y-83666286D01*
X146582753Y-83876239D01*
X146648444Y-84078414D01*
X146744951Y-84267820D01*
X146869890Y-84439786D01*
X147020213Y-84590109D01*
X147192182Y-84715050D01*
X147200946Y-84719516D01*
X147251742Y-84767491D01*
X147268536Y-84835312D01*
X147245998Y-84901447D01*
X147200946Y-84940484D01*
X147192182Y-84944949D01*
X147020213Y-85069890D01*
X146869890Y-85220213D01*
X146744951Y-85392179D01*
X146648444Y-85581585D01*
X146582753Y-85783760D01*
X146549500Y-85993713D01*
X146549500Y-86206286D01*
X146577487Y-86382993D01*
X146582754Y-86416243D01*
X146610689Y-86502219D01*
X146648444Y-86618414D01*
X146744951Y-86807820D01*
X146869890Y-86979786D01*
X147020213Y-87130109D01*
X147192182Y-87255050D01*
X147200946Y-87259516D01*
X147251742Y-87307491D01*
X147268536Y-87375312D01*
X147245998Y-87441447D01*
X147200946Y-87480484D01*
X147192182Y-87484949D01*
X147020213Y-87609890D01*
X146869890Y-87760213D01*
X146744951Y-87932179D01*
X146648444Y-88121585D01*
X146582753Y-88323760D01*
X146575441Y-88369926D01*
X146549500Y-88533713D01*
X146549500Y-88746287D01*
X146582754Y-88956243D01*
X146595873Y-88996620D01*
X146648444Y-89158414D01*
X146744951Y-89347820D01*
X146869890Y-89519786D01*
X147020213Y-89670109D01*
X147192182Y-89795050D01*
X147200946Y-89799516D01*
X147251742Y-89847491D01*
X147268536Y-89915312D01*
X147245998Y-89981447D01*
X147200946Y-90020484D01*
X147192182Y-90024949D01*
X147020213Y-90149890D01*
X146869890Y-90300213D01*
X146744951Y-90472179D01*
X146648444Y-90661585D01*
X146582753Y-90863760D01*
X146551327Y-91062179D01*
X146549500Y-91073713D01*
X146549500Y-91286287D01*
X146555542Y-91324433D01*
X146582753Y-91496239D01*
X146648444Y-91698414D01*
X146744951Y-91887820D01*
X146869890Y-92059786D01*
X147020213Y-92210109D01*
X147192182Y-92335050D01*
X147200946Y-92339516D01*
X147251742Y-92387491D01*
X147268536Y-92455312D01*
X147245998Y-92521447D01*
X147200946Y-92560484D01*
X147192182Y-92564949D01*
X147020213Y-92689890D01*
X146869890Y-92840213D01*
X146744951Y-93012179D01*
X146648444Y-93201585D01*
X146582753Y-93403760D01*
X146549500Y-93613713D01*
X146549500Y-93826286D01*
X146579071Y-94012993D01*
X146582754Y-94036243D01*
X146593722Y-94070000D01*
X146648444Y-94238414D01*
X146744951Y-94427820D01*
X146869890Y-94599786D01*
X147020213Y-94750109D01*
X147192182Y-94875050D01*
X147200946Y-94879516D01*
X147251742Y-94927491D01*
X147268536Y-94995312D01*
X147245998Y-95061447D01*
X147200946Y-95100484D01*
X147192182Y-95104949D01*
X147020213Y-95229890D01*
X146869890Y-95380213D01*
X146744948Y-95552184D01*
X146744947Y-95552185D01*
X146724765Y-95591795D01*
X146676791Y-95642591D01*
X146614281Y-95659500D01*
X142771814Y-95659500D01*
X142704775Y-95639815D01*
X142659020Y-95587011D01*
X142649076Y-95517853D01*
X142678101Y-95454297D01*
X142698929Y-95435182D01*
X142829785Y-95340109D01*
X142829783Y-95340109D01*
X142829792Y-95340104D01*
X142980104Y-95189792D01*
X142980106Y-95189788D01*
X142980109Y-95189786D01*
X143105048Y-95017820D01*
X143105047Y-95017820D01*
X143105051Y-95017816D01*
X143201557Y-94828412D01*
X143267246Y-94626243D01*
X143300500Y-94416287D01*
X143300500Y-94203713D01*
X143267246Y-93993757D01*
X143201557Y-93791588D01*
X143105051Y-93602184D01*
X143105049Y-93602181D01*
X143105048Y-93602179D01*
X142980109Y-93430213D01*
X142829786Y-93279890D01*
X142657820Y-93154951D01*
X142657115Y-93154591D01*
X142649054Y-93150485D01*
X142598259Y-93102512D01*
X142581463Y-93034692D01*
X142603999Y-92968556D01*
X142649054Y-92929515D01*
X142657816Y-92925051D01*
X142679789Y-92909086D01*
X142829786Y-92800109D01*
X142829788Y-92800106D01*
X142829792Y-92800104D01*
X142980104Y-92649792D01*
X142980106Y-92649788D01*
X142980109Y-92649786D01*
X143105048Y-92477820D01*
X143105047Y-92477820D01*
X143105051Y-92477816D01*
X143201557Y-92288412D01*
X143267246Y-92086243D01*
X143300500Y-91876287D01*
X143300500Y-91663713D01*
X143267246Y-91453757D01*
X143201557Y-91251588D01*
X143105051Y-91062184D01*
X143105049Y-91062181D01*
X143105048Y-91062179D01*
X142980109Y-90890213D01*
X142829786Y-90739890D01*
X142657820Y-90614951D01*
X142657115Y-90614591D01*
X142649054Y-90610485D01*
X142598259Y-90562512D01*
X142581463Y-90494692D01*
X142603999Y-90428556D01*
X142649054Y-90389515D01*
X142657816Y-90385051D01*
X142707273Y-90349119D01*
X142829786Y-90260109D01*
X142829788Y-90260106D01*
X142829792Y-90260104D01*
X142980104Y-90109792D01*
X142980106Y-90109788D01*
X142980109Y-90109786D01*
X143105048Y-89937820D01*
X143105047Y-89937820D01*
X143105051Y-89937816D01*
X143201557Y-89748412D01*
X143267246Y-89546243D01*
X143300500Y-89336287D01*
X143300500Y-89123713D01*
X143267246Y-88913757D01*
X143201557Y-88711588D01*
X143105051Y-88522184D01*
X143105049Y-88522181D01*
X143105048Y-88522179D01*
X142980109Y-88350213D01*
X142829786Y-88199890D01*
X142657817Y-88074949D01*
X142648504Y-88070204D01*
X142597707Y-88022230D01*
X142580912Y-87954409D01*
X142603449Y-87888274D01*
X142648507Y-87849232D01*
X142657555Y-87844622D01*
X142711716Y-87805270D01*
X142711717Y-87805270D01*
X142079408Y-87172962D01*
X142142993Y-87155925D01*
X142257007Y-87090099D01*
X142350099Y-86997007D01*
X142415925Y-86882993D01*
X142432962Y-86819408D01*
X143065270Y-87451717D01*
X143065270Y-87451716D01*
X143104622Y-87397554D01*
X143201095Y-87208217D01*
X143266757Y-87006130D01*
X143266757Y-87006127D01*
X143300000Y-86796246D01*
X143300000Y-86583753D01*
X143266757Y-86373872D01*
X143266757Y-86373869D01*
X143201095Y-86171782D01*
X143104624Y-85982449D01*
X143065270Y-85928282D01*
X143065269Y-85928282D01*
X142432962Y-86560590D01*
X142415925Y-86497007D01*
X142350099Y-86382993D01*
X142257007Y-86289901D01*
X142142993Y-86224075D01*
X142079409Y-86207037D01*
X142711716Y-85574728D01*
X142657547Y-85535373D01*
X142657547Y-85535372D01*
X142648500Y-85530763D01*
X142597706Y-85482788D01*
X142580912Y-85414966D01*
X142603451Y-85348832D01*
X142648508Y-85309793D01*
X142657816Y-85305051D01*
X142744147Y-85242328D01*
X142829786Y-85180109D01*
X142829788Y-85180106D01*
X142829792Y-85180104D01*
X142980104Y-85029792D01*
X142980106Y-85029788D01*
X142980109Y-85029786D01*
X143105048Y-84857820D01*
X143105047Y-84857820D01*
X143105051Y-84857816D01*
X143201557Y-84668412D01*
X143267246Y-84466243D01*
X143300500Y-84256287D01*
X143300500Y-84043713D01*
X143267246Y-83833757D01*
X143201557Y-83631588D01*
X143105051Y-83442184D01*
X143105049Y-83442181D01*
X143105048Y-83442179D01*
X142980109Y-83270213D01*
X142866569Y-83156673D01*
X142833084Y-83095350D01*
X142838068Y-83025658D01*
X142879940Y-82969725D01*
X142910915Y-82952810D01*
X143042331Y-82903796D01*
X143157546Y-82817546D01*
X143243796Y-82702331D01*
X143294091Y-82567483D01*
X143300500Y-82507873D01*
X143300499Y-80712128D01*
X143294091Y-80652517D01*
X143244665Y-80520000D01*
X143243797Y-80517671D01*
X143243793Y-80517664D01*
X143157547Y-80402455D01*
X143157544Y-80402452D01*
X143042335Y-80316206D01*
X143042328Y-80316202D01*
X142907482Y-80265908D01*
X142907483Y-80265908D01*
X142847883Y-80259501D01*
X142847881Y-80259500D01*
X142847873Y-80259500D01*
X142847864Y-80259500D01*
X141052129Y-80259500D01*
X141052123Y-80259501D01*
X140992516Y-80265908D01*
X140857671Y-80316202D01*
X140857664Y-80316206D01*
X140742455Y-80402452D01*
X140742452Y-80402455D01*
X140656206Y-80517664D01*
X140656202Y-80517671D01*
X140605908Y-80652517D01*
X140599501Y-80712116D01*
X140599501Y-80712123D01*
X140599500Y-80712135D01*
X140599500Y-82507870D01*
X140599501Y-82507876D01*
X140605908Y-82567483D01*
X140656202Y-82702328D01*
X140656206Y-82702335D01*
X140742452Y-82817544D01*
X140742455Y-82817547D01*
X140857664Y-82903793D01*
X140857671Y-82903797D01*
X140989082Y-82952810D01*
X141045016Y-82994681D01*
X141069433Y-83060145D01*
X141054582Y-83128418D01*
X141033431Y-83156673D01*
X140919889Y-83270215D01*
X140794951Y-83442179D01*
X140698444Y-83631585D01*
X140632753Y-83833760D01*
X140599500Y-84043713D01*
X140599500Y-84256286D01*
X140632753Y-84466239D01*
X140698444Y-84668414D01*
X140794951Y-84857820D01*
X140919890Y-85029786D01*
X141070213Y-85180109D01*
X141242179Y-85305048D01*
X141242181Y-85305049D01*
X141242184Y-85305051D01*
X141251493Y-85309794D01*
X141302290Y-85357766D01*
X141319087Y-85425587D01*
X141296552Y-85491722D01*
X141251505Y-85530760D01*
X141242446Y-85535376D01*
X141242440Y-85535380D01*
X141188282Y-85574727D01*
X141188282Y-85574728D01*
X141820591Y-86207037D01*
X141757007Y-86224075D01*
X141642993Y-86289901D01*
X141549901Y-86382993D01*
X141484075Y-86497007D01*
X141467037Y-86560591D01*
X140834728Y-85928282D01*
X140834727Y-85928282D01*
X140795380Y-85982439D01*
X140698904Y-86171782D01*
X140633242Y-86373869D01*
X140633242Y-86373872D01*
X140600000Y-86583753D01*
X140600000Y-86796246D01*
X140633242Y-87006127D01*
X140633242Y-87006130D01*
X140698904Y-87208217D01*
X140795375Y-87397550D01*
X140834728Y-87451716D01*
X141467037Y-86819408D01*
X141484075Y-86882993D01*
X141549901Y-86997007D01*
X141642993Y-87090099D01*
X141757007Y-87155925D01*
X141820590Y-87172962D01*
X141188282Y-87805269D01*
X141188282Y-87805270D01*
X141242452Y-87844626D01*
X141242451Y-87844626D01*
X141251495Y-87849234D01*
X141302292Y-87897208D01*
X141319087Y-87965029D01*
X141296550Y-88031164D01*
X141251499Y-88070202D01*
X141242182Y-88074949D01*
X141070213Y-88199890D01*
X140919890Y-88350213D01*
X140794951Y-88522179D01*
X140698444Y-88711585D01*
X140632753Y-88913760D01*
X140599500Y-89123713D01*
X140599500Y-89336286D01*
X140628564Y-89519792D01*
X140632754Y-89546243D01*
X140688584Y-89718070D01*
X140698444Y-89748414D01*
X140794951Y-89937820D01*
X140919890Y-90109786D01*
X141070213Y-90260109D01*
X141242182Y-90385050D01*
X141250946Y-90389516D01*
X141301742Y-90437491D01*
X141318536Y-90505312D01*
X141295998Y-90571447D01*
X141250946Y-90610484D01*
X141242182Y-90614949D01*
X141070213Y-90739890D01*
X140919890Y-90890213D01*
X140794951Y-91062179D01*
X140698444Y-91251585D01*
X140632753Y-91453760D01*
X140599500Y-91663713D01*
X140599500Y-91876286D01*
X140628564Y-92059792D01*
X140632754Y-92086243D01*
X140641261Y-92112426D01*
X140698444Y-92288414D01*
X140794951Y-92477820D01*
X140919890Y-92649786D01*
X141070213Y-92800109D01*
X141242182Y-92925050D01*
X141250946Y-92929516D01*
X141301742Y-92977491D01*
X141318536Y-93045312D01*
X141295998Y-93111447D01*
X141250946Y-93150484D01*
X141242182Y-93154949D01*
X141070213Y-93279890D01*
X140919890Y-93430213D01*
X140794951Y-93602179D01*
X140698444Y-93791585D01*
X140632753Y-93993760D01*
X140599500Y-94203713D01*
X140599500Y-94416286D01*
X140628564Y-94599792D01*
X140632754Y-94626243D01*
X140633002Y-94627007D01*
X140698444Y-94828414D01*
X140794951Y-95017820D01*
X140919890Y-95189786D01*
X141070213Y-95340109D01*
X141242182Y-95465050D01*
X141250946Y-95469516D01*
X141301742Y-95517491D01*
X141318536Y-95585312D01*
X141295998Y-95651447D01*
X141250946Y-95690484D01*
X141242182Y-95694949D01*
X141070213Y-95819890D01*
X140919890Y-95970213D01*
X140794951Y-96142179D01*
X140698444Y-96331585D01*
X140632753Y-96533760D01*
X140599500Y-96743713D01*
X140599500Y-96956286D01*
X140632753Y-97166239D01*
X140632753Y-97166241D01*
X140632754Y-97166243D01*
X140687431Y-97334522D01*
X140698444Y-97368414D01*
X140794951Y-97557820D01*
X140919890Y-97729786D01*
X141070213Y-97880109D01*
X141242182Y-98005050D01*
X141250946Y-98009516D01*
X141301742Y-98057491D01*
X141318536Y-98125312D01*
X141295998Y-98191447D01*
X141250946Y-98230484D01*
X141242182Y-98234949D01*
X141070213Y-98359890D01*
X140919890Y-98510213D01*
X140794951Y-98682179D01*
X140698444Y-98871585D01*
X140632753Y-99073760D01*
X140599500Y-99283713D01*
X140599500Y-99496286D01*
X140628564Y-99679792D01*
X140632754Y-99706243D01*
X140684824Y-99866498D01*
X140698444Y-99908414D01*
X140753621Y-100016705D01*
X140766517Y-100085374D01*
X140740241Y-100150115D01*
X140683134Y-100190372D01*
X140643136Y-100197000D01*
X138724500Y-100197000D01*
X138657461Y-100177315D01*
X138611706Y-100124511D01*
X138600500Y-100073000D01*
X138600500Y-99921155D01*
X138600499Y-99921153D01*
X138569739Y-99766511D01*
X138569736Y-99766501D01*
X138529939Y-99670421D01*
X138520500Y-99622969D01*
X138520500Y-68598218D01*
X138540185Y-68531179D01*
X138588207Y-68487733D01*
X138627815Y-68467552D01*
X138627815Y-68467551D01*
X138627816Y-68467551D01*
X138719193Y-68401161D01*
X138799786Y-68342609D01*
X138799788Y-68342606D01*
X138799792Y-68342604D01*
X138950104Y-68192292D01*
X138950106Y-68192288D01*
X138950109Y-68192286D01*
X139035890Y-68074217D01*
X139075051Y-68020316D01*
X139079793Y-68011008D01*
X139127763Y-67960211D01*
X139195583Y-67943411D01*
X139261719Y-67965945D01*
X139300763Y-68011000D01*
X139305373Y-68020047D01*
X139344728Y-68074216D01*
X139977036Y-67441907D01*
X139994075Y-67505493D01*
X140059901Y-67619507D01*
X140152993Y-67712599D01*
X140267007Y-67778425D01*
X140330590Y-67795462D01*
X139698282Y-68427769D01*
X139698282Y-68427770D01*
X139752449Y-68467124D01*
X139941782Y-68563595D01*
X140143870Y-68629257D01*
X140353754Y-68662500D01*
X140566246Y-68662500D01*
X140776127Y-68629257D01*
X140776130Y-68629257D01*
X140978217Y-68563595D01*
X141167554Y-68467122D01*
X141221716Y-68427770D01*
X141221717Y-68427770D01*
X140589408Y-67795462D01*
X140652993Y-67778425D01*
X140767007Y-67712599D01*
X140860099Y-67619507D01*
X140925925Y-67505493D01*
X140942962Y-67441909D01*
X141575270Y-68074217D01*
X141575270Y-68074216D01*
X141614622Y-68020055D01*
X141619232Y-68011007D01*
X141667205Y-67960209D01*
X141735025Y-67943412D01*
X141801161Y-67965947D01*
X141840204Y-68011004D01*
X141844949Y-68020317D01*
X141969890Y-68192286D01*
X142120213Y-68342609D01*
X142292179Y-68467548D01*
X142292181Y-68467549D01*
X142292184Y-68467551D01*
X142481588Y-68564057D01*
X142683757Y-68629746D01*
X142893713Y-68663000D01*
X142893714Y-68663000D01*
X143106286Y-68663000D01*
X143106287Y-68663000D01*
X143316243Y-68629746D01*
X143518412Y-68564057D01*
X143707816Y-68467551D01*
X143780810Y-68414518D01*
X143879786Y-68342609D01*
X143879788Y-68342606D01*
X143879792Y-68342604D01*
X144030104Y-68192292D01*
X144030106Y-68192288D01*
X144030109Y-68192286D01*
X144155048Y-68020320D01*
X144155047Y-68020320D01*
X144155051Y-68020316D01*
X144251557Y-67830912D01*
X144317246Y-67628743D01*
X144350500Y-67418787D01*
X144350500Y-67206213D01*
X144317246Y-66996257D01*
X144251557Y-66794088D01*
X144155051Y-66604684D01*
X144155049Y-66604681D01*
X144155048Y-66604679D01*
X144030109Y-66432713D01*
X143879786Y-66282390D01*
X143707820Y-66157451D01*
X143518414Y-66060944D01*
X143518413Y-66060943D01*
X143518412Y-66060943D01*
X143316243Y-65995254D01*
X143316241Y-65995253D01*
X143316240Y-65995253D01*
X143154957Y-65969708D01*
X143106287Y-65962000D01*
X142893713Y-65962000D01*
X142845042Y-65969708D01*
X142683760Y-65995253D01*
X142481585Y-66060944D01*
X142292179Y-66157451D01*
X142120213Y-66282390D01*
X141969890Y-66432713D01*
X141844949Y-66604682D01*
X141840202Y-66613999D01*
X141792227Y-66664793D01*
X141724405Y-66681587D01*
X141658271Y-66659048D01*
X141619234Y-66613995D01*
X141614626Y-66604952D01*
X141575270Y-66550782D01*
X141575269Y-66550782D01*
X140942962Y-67183090D01*
X140925925Y-67119507D01*
X140860099Y-67005493D01*
X140767007Y-66912401D01*
X140652993Y-66846575D01*
X140589409Y-66829537D01*
X141221716Y-66197228D01*
X141167550Y-66157875D01*
X140978217Y-66061404D01*
X140776129Y-65995742D01*
X140566246Y-65962500D01*
X140353754Y-65962500D01*
X140143872Y-65995742D01*
X140143869Y-65995742D01*
X139941782Y-66061404D01*
X139752439Y-66157880D01*
X139698282Y-66197227D01*
X139698282Y-66197228D01*
X140330591Y-66829537D01*
X140267007Y-66846575D01*
X140152993Y-66912401D01*
X140059901Y-67005493D01*
X139994075Y-67119507D01*
X139977037Y-67183091D01*
X139344728Y-66550782D01*
X139344727Y-66550782D01*
X139305380Y-66604940D01*
X139305376Y-66604946D01*
X139300760Y-66614005D01*
X139252781Y-66664797D01*
X139184959Y-66681587D01*
X139118826Y-66659043D01*
X139079794Y-66613993D01*
X139075051Y-66604684D01*
X139075049Y-66604681D01*
X139075048Y-66604679D01*
X138950109Y-66432713D01*
X138799786Y-66282390D01*
X138627820Y-66157451D01*
X138438414Y-66060944D01*
X138438413Y-66060943D01*
X138438412Y-66060943D01*
X138236243Y-65995254D01*
X138236241Y-65995253D01*
X138236240Y-65995253D01*
X138074957Y-65969708D01*
X138026287Y-65962000D01*
X137813713Y-65962000D01*
X137765042Y-65969708D01*
X137603760Y-65995253D01*
X137401585Y-66060944D01*
X137212179Y-66157451D01*
X137040213Y-66282390D01*
X136889890Y-66432713D01*
X136764949Y-66604682D01*
X136760484Y-66613446D01*
X136712509Y-66664242D01*
X136644688Y-66681036D01*
X136578553Y-66658498D01*
X136539516Y-66613446D01*
X136535050Y-66604682D01*
X136410109Y-66432713D01*
X136259786Y-66282390D01*
X136087820Y-66157451D01*
X135898414Y-66060944D01*
X135898413Y-66060943D01*
X135898412Y-66060943D01*
X135696243Y-65995254D01*
X135696241Y-65995253D01*
X135696240Y-65995253D01*
X135534957Y-65969708D01*
X135486287Y-65962000D01*
X135273713Y-65962000D01*
X135225042Y-65969708D01*
X135063760Y-65995253D01*
X134861585Y-66060944D01*
X134672179Y-66157451D01*
X134500213Y-66282390D01*
X134349890Y-66432713D01*
X134224949Y-66604682D01*
X134220484Y-66613446D01*
X134172509Y-66664242D01*
X134104688Y-66681036D01*
X134038553Y-66658498D01*
X133999516Y-66613446D01*
X133995050Y-66604682D01*
X133870109Y-66432713D01*
X133719786Y-66282390D01*
X133547820Y-66157451D01*
X133358414Y-66060944D01*
X133358413Y-66060943D01*
X133358412Y-66060943D01*
X133156243Y-65995254D01*
X133156241Y-65995253D01*
X133156240Y-65995253D01*
X132994957Y-65969708D01*
X132946287Y-65962000D01*
X132733713Y-65962000D01*
X132685042Y-65969708D01*
X132523760Y-65995253D01*
X132321585Y-66060944D01*
X132132179Y-66157451D01*
X131960213Y-66282390D01*
X131809890Y-66432713D01*
X131684949Y-66604682D01*
X131680484Y-66613446D01*
X131632509Y-66664242D01*
X131564688Y-66681036D01*
X131498553Y-66658498D01*
X131459516Y-66613446D01*
X131455050Y-66604682D01*
X131330109Y-66432713D01*
X131179786Y-66282390D01*
X131007820Y-66157451D01*
X130818414Y-66060944D01*
X130818413Y-66060943D01*
X130818412Y-66060943D01*
X130616243Y-65995254D01*
X130616241Y-65995253D01*
X130616240Y-65995253D01*
X130454957Y-65969708D01*
X130406287Y-65962000D01*
X130193713Y-65962000D01*
X130145042Y-65969708D01*
X129983760Y-65995253D01*
X129781585Y-66060944D01*
X129592179Y-66157451D01*
X129420213Y-66282390D01*
X129269890Y-66432713D01*
X129144949Y-66604682D01*
X129140484Y-66613446D01*
X129092509Y-66664242D01*
X129024688Y-66681036D01*
X128958553Y-66658498D01*
X128919516Y-66613446D01*
X128915050Y-66604682D01*
X128790109Y-66432713D01*
X128639786Y-66282390D01*
X128467820Y-66157451D01*
X128278414Y-66060944D01*
X128278413Y-66060943D01*
X128278412Y-66060943D01*
X128076243Y-65995254D01*
X128076241Y-65995253D01*
X128076240Y-65995253D01*
X127914957Y-65969708D01*
X127866287Y-65962000D01*
X127653713Y-65962000D01*
X127605042Y-65969708D01*
X127443760Y-65995253D01*
X127241585Y-66060944D01*
X127052179Y-66157451D01*
X126880215Y-66282389D01*
X126766673Y-66395931D01*
X126705350Y-66429415D01*
X126635658Y-66424431D01*
X126579725Y-66382559D01*
X126562810Y-66351582D01*
X126513797Y-66220171D01*
X126513793Y-66220164D01*
X126427547Y-66104955D01*
X126427544Y-66104952D01*
X126312335Y-66018706D01*
X126312328Y-66018702D01*
X126177482Y-65968408D01*
X126177483Y-65968408D01*
X126117883Y-65962001D01*
X126117881Y-65962000D01*
X126117873Y-65962000D01*
X126117864Y-65962000D01*
X124322129Y-65962000D01*
X124322123Y-65962001D01*
X124262516Y-65968408D01*
X124127671Y-66018702D01*
X124127664Y-66018706D01*
X124012455Y-66104952D01*
X124012452Y-66104955D01*
X123926206Y-66220164D01*
X123926202Y-66220171D01*
X123875908Y-66355017D01*
X123869501Y-66414616D01*
X123869500Y-66414635D01*
X123869500Y-67762402D01*
X123849815Y-67829441D01*
X123833181Y-67850083D01*
X121319481Y-70363782D01*
X121319477Y-70363787D01*
X121274396Y-70441872D01*
X121274396Y-70441873D01*
X121240423Y-70500714D01*
X121226781Y-70551624D01*
X121199499Y-70653443D01*
X121199499Y-70653445D01*
X121199499Y-70821546D01*
X121199500Y-70821559D01*
X121199500Y-85973150D01*
X121190855Y-86002590D01*
X121184332Y-86032577D01*
X121180577Y-86037592D01*
X121179815Y-86040189D01*
X121163181Y-86060831D01*
X121145231Y-86078781D01*
X121083908Y-86112266D01*
X121057550Y-86115100D01*
X120845150Y-86115100D01*
X120778111Y-86095415D01*
X120757469Y-86078781D01*
X120710534Y-86031846D01*
X120710529Y-86031842D01*
X120573270Y-85948867D01*
X120573266Y-85948865D01*
X120420133Y-85901148D01*
X120420135Y-85901148D01*
X120393512Y-85898728D01*
X120353581Y-85895100D01*
X120353578Y-85895100D01*
X119851811Y-85895100D01*
X119785273Y-85901146D01*
X119785266Y-85901148D01*
X119632137Y-85948864D01*
X119632131Y-85948867D01*
X119568864Y-85987112D01*
X119501309Y-86004947D01*
X119440567Y-85987111D01*
X119378063Y-85949326D01*
X119378059Y-85949324D01*
X119225042Y-85901643D01*
X119225043Y-85901643D01*
X119158537Y-85895600D01*
X119157700Y-85895600D01*
X119157700Y-87535600D01*
X119158537Y-87535600D01*
X119225038Y-87529557D01*
X119378062Y-87481873D01*
X119440565Y-87444089D01*
X119508120Y-87426252D01*
X119568865Y-87444088D01*
X119632129Y-87482332D01*
X119632133Y-87482334D01*
X119686300Y-87499212D01*
X119785267Y-87530052D01*
X119851819Y-87536100D01*
X120353580Y-87536099D01*
X120353588Y-87536099D01*
X120420126Y-87530053D01*
X120420127Y-87530052D01*
X120420133Y-87530052D01*
X120570140Y-87483308D01*
X120573266Y-87482334D01*
X120573266Y-87482333D01*
X120573269Y-87482333D01*
X120655683Y-87432512D01*
X120710529Y-87399357D01*
X120710530Y-87399355D01*
X120710535Y-87399353D01*
X120757469Y-87352419D01*
X120784396Y-87337715D01*
X120810215Y-87321123D01*
X120816415Y-87320231D01*
X120818792Y-87318934D01*
X120845150Y-87316100D01*
X121057550Y-87316100D01*
X121124589Y-87335785D01*
X121145231Y-87352419D01*
X121192165Y-87399353D01*
X121192170Y-87399357D01*
X121329429Y-87482332D01*
X121329433Y-87482334D01*
X121383600Y-87499212D01*
X121482567Y-87530052D01*
X121549119Y-87536100D01*
X122050880Y-87536099D01*
X122050888Y-87536099D01*
X122117426Y-87530053D01*
X122117427Y-87530052D01*
X122117433Y-87530052D01*
X122267440Y-87483308D01*
X122270566Y-87482334D01*
X122270566Y-87482333D01*
X122270569Y-87482333D01*
X122333350Y-87444379D01*
X122400905Y-87426544D01*
X122461649Y-87444379D01*
X122524431Y-87482333D01*
X122524434Y-87482334D01*
X122524433Y-87482334D01*
X122578600Y-87499212D01*
X122677567Y-87530052D01*
X122744119Y-87536100D01*
X123245880Y-87536099D01*
X123245888Y-87536099D01*
X123312426Y-87530053D01*
X123312427Y-87530052D01*
X123312433Y-87530052D01*
X123462440Y-87483308D01*
X123465566Y-87482334D01*
X123465566Y-87482333D01*
X123465569Y-87482333D01*
X123561000Y-87424642D01*
X123628555Y-87406807D01*
X123695029Y-87428325D01*
X123739316Y-87482365D01*
X123739711Y-87483308D01*
X123790602Y-87606172D01*
X123790609Y-87606185D01*
X123878602Y-87737874D01*
X123899480Y-87804551D01*
X123899500Y-87806765D01*
X123899500Y-88799902D01*
X123879815Y-88866941D01*
X123863181Y-88887583D01*
X123045082Y-89705681D01*
X122983759Y-89739166D01*
X122957402Y-89742000D01*
X122786611Y-89742000D01*
X122720073Y-89748046D01*
X122720066Y-89748048D01*
X122566933Y-89795765D01*
X122566929Y-89795767D01*
X122429670Y-89878742D01*
X122429665Y-89878746D01*
X122316246Y-89992165D01*
X122316242Y-89992170D01*
X122233267Y-90129429D01*
X122233265Y-90129433D01*
X122185548Y-90282565D01*
X122179500Y-90349121D01*
X122179500Y-90850888D01*
X122185546Y-90917426D01*
X122185548Y-90917433D01*
X122233265Y-91070566D01*
X122233267Y-91070570D01*
X122271219Y-91133351D01*
X122289055Y-91200906D01*
X122271219Y-91261649D01*
X122233267Y-91324429D01*
X122233265Y-91324433D01*
X122185548Y-91477565D01*
X122179500Y-91544121D01*
X122179500Y-92045888D01*
X122185546Y-92112426D01*
X122185548Y-92112433D01*
X122233265Y-92265566D01*
X122233267Y-92265570D01*
X122316242Y-92402829D01*
X122316246Y-92402834D01*
X122429665Y-92516253D01*
X122429670Y-92516257D01*
X122566929Y-92599232D01*
X122566933Y-92599234D01*
X122621100Y-92616112D01*
X122720067Y-92646952D01*
X122786619Y-92653000D01*
X123213380Y-92652999D01*
X123213388Y-92652999D01*
X123279926Y-92646953D01*
X123279927Y-92646952D01*
X123279933Y-92646952D01*
X123433069Y-92599233D01*
X123503717Y-92556524D01*
X123570329Y-92516257D01*
X123570330Y-92516255D01*
X123570335Y-92516253D01*
X123679769Y-92406819D01*
X123741092Y-92373334D01*
X123767450Y-92370500D01*
X125434281Y-92370500D01*
X125501320Y-92390185D01*
X125544765Y-92438205D01*
X125564947Y-92477814D01*
X125564948Y-92477815D01*
X125689890Y-92649786D01*
X125840213Y-92800109D01*
X126012182Y-92925050D01*
X126020946Y-92929516D01*
X126071742Y-92977491D01*
X126088536Y-93045312D01*
X126065998Y-93111447D01*
X126020946Y-93150484D01*
X126012182Y-93154949D01*
X125840213Y-93279890D01*
X125689890Y-93430213D01*
X125564951Y-93602179D01*
X125468444Y-93791585D01*
X125402753Y-93993760D01*
X125369500Y-94203713D01*
X125369500Y-94416286D01*
X125398564Y-94599792D01*
X125402754Y-94626243D01*
X125403002Y-94627007D01*
X125468444Y-94828414D01*
X125564951Y-95017820D01*
X125689890Y-95189786D01*
X125840213Y-95340109D01*
X126012182Y-95465050D01*
X126020946Y-95469516D01*
X126071742Y-95517491D01*
X126088536Y-95585312D01*
X126065998Y-95651447D01*
X126020946Y-95690484D01*
X126012182Y-95694949D01*
X125840213Y-95819890D01*
X125689890Y-95970213D01*
X125564951Y-96142179D01*
X125468444Y-96331585D01*
X125402753Y-96533760D01*
X125369500Y-96743713D01*
X125369500Y-96956286D01*
X125402753Y-97166239D01*
X125402753Y-97166241D01*
X125402754Y-97166243D01*
X125457431Y-97334522D01*
X125468444Y-97368414D01*
X125564951Y-97557820D01*
X125689890Y-97729786D01*
X125840213Y-97880109D01*
X126012182Y-98005050D01*
X126020946Y-98009516D01*
X126071742Y-98057491D01*
X126088536Y-98125312D01*
X126065998Y-98191447D01*
X126020946Y-98230484D01*
X126012182Y-98234949D01*
X125840213Y-98359890D01*
X125689890Y-98510213D01*
X125564948Y-98682184D01*
X125564947Y-98682185D01*
X125544765Y-98721795D01*
X125496791Y-98772591D01*
X125434281Y-98789500D01*
X123835380Y-98789500D01*
X123768341Y-98769815D01*
X123747699Y-98753181D01*
X123659959Y-98665441D01*
X123659950Y-98665434D01*
X123517398Y-98581129D01*
X123517395Y-98581128D01*
X123358362Y-98534924D01*
X123358356Y-98534923D01*
X123321203Y-98532000D01*
X122878809Y-98532000D01*
X122878784Y-98532001D01*
X122841645Y-98534923D01*
X122682599Y-98581130D01*
X122540049Y-98665434D01*
X122540044Y-98665438D01*
X122513304Y-98692179D01*
X122442300Y-98763182D01*
X122415369Y-98777888D01*
X122389556Y-98794477D01*
X122383356Y-98795368D01*
X122380980Y-98796666D01*
X122354621Y-98799500D01*
X122117450Y-98799500D01*
X122050411Y-98779815D01*
X122029769Y-98763181D01*
X121982834Y-98716246D01*
X121982829Y-98716242D01*
X121845570Y-98633267D01*
X121845566Y-98633265D01*
X121692433Y-98585548D01*
X121692435Y-98585548D01*
X121665812Y-98583128D01*
X121625881Y-98579500D01*
X121625878Y-98579500D01*
X121124111Y-98579500D01*
X121057573Y-98585546D01*
X121057566Y-98585548D01*
X120904433Y-98633265D01*
X120904429Y-98633267D01*
X120841649Y-98671219D01*
X120774094Y-98689055D01*
X120713351Y-98671219D01*
X120650570Y-98633267D01*
X120650566Y-98633265D01*
X120497433Y-98585548D01*
X120497435Y-98585548D01*
X120470812Y-98583128D01*
X120430881Y-98579500D01*
X120430878Y-98579500D01*
X119929111Y-98579500D01*
X119862573Y-98585546D01*
X119862566Y-98585548D01*
X119709433Y-98633265D01*
X119709429Y-98633267D01*
X119572170Y-98716242D01*
X119572165Y-98716246D01*
X119525231Y-98763181D01*
X119463908Y-98796666D01*
X119437550Y-98799500D01*
X118285719Y-98799500D01*
X118218680Y-98779815D01*
X118175235Y-98731795D01*
X118155052Y-98692185D01*
X118155051Y-98692184D01*
X118030109Y-98520213D01*
X117879786Y-98369890D01*
X117707820Y-98244951D01*
X117707115Y-98244591D01*
X117699054Y-98240485D01*
X117648259Y-98192512D01*
X117631463Y-98124692D01*
X117653999Y-98058556D01*
X117699054Y-98019515D01*
X117707816Y-98015051D01*
X117736382Y-97994297D01*
X117879786Y-97890109D01*
X117879788Y-97890106D01*
X117879792Y-97890104D01*
X118030104Y-97739792D01*
X118030106Y-97739788D01*
X118030109Y-97739786D01*
X118155048Y-97567820D01*
X118155047Y-97567820D01*
X118155051Y-97567816D01*
X118251557Y-97378412D01*
X118317246Y-97176243D01*
X118350500Y-96966287D01*
X118350500Y-96753713D01*
X118317246Y-96543757D01*
X118251557Y-96341588D01*
X118155051Y-96152184D01*
X118155049Y-96152181D01*
X118155048Y-96152179D01*
X118030109Y-95980213D01*
X117916181Y-95866285D01*
X117882696Y-95804962D01*
X117887680Y-95735270D01*
X117929552Y-95679337D01*
X117960529Y-95662422D01*
X118092086Y-95613354D01*
X118092093Y-95613350D01*
X118207187Y-95527190D01*
X118207190Y-95527187D01*
X118293350Y-95412093D01*
X118293354Y-95412086D01*
X118343596Y-95277379D01*
X118343598Y-95277372D01*
X118349999Y-95217844D01*
X118350000Y-95217827D01*
X118350000Y-94570000D01*
X117433012Y-94570000D01*
X117465925Y-94512993D01*
X117500000Y-94385826D01*
X117500000Y-94254174D01*
X117465925Y-94127007D01*
X117433012Y-94070000D01*
X118350000Y-94070000D01*
X118350000Y-93422172D01*
X118349999Y-93422155D01*
X118343598Y-93362627D01*
X118343596Y-93362620D01*
X118293354Y-93227913D01*
X118293350Y-93227906D01*
X118207190Y-93112812D01*
X118207187Y-93112809D01*
X118092093Y-93026649D01*
X118092086Y-93026645D01*
X117957379Y-92976403D01*
X117957372Y-92976401D01*
X117897844Y-92970000D01*
X117250000Y-92970000D01*
X117250000Y-93886988D01*
X117192993Y-93854075D01*
X117065826Y-93820000D01*
X116934174Y-93820000D01*
X116807007Y-93854075D01*
X116750000Y-93886988D01*
X116750000Y-92970000D01*
X116102155Y-92970000D01*
X116042627Y-92976401D01*
X116042620Y-92976403D01*
X115907913Y-93026645D01*
X115907906Y-93026649D01*
X115792812Y-93112809D01*
X115792809Y-93112812D01*
X115706649Y-93227906D01*
X115706645Y-93227913D01*
X115656403Y-93362620D01*
X115656401Y-93362627D01*
X115650000Y-93422155D01*
X115650000Y-94070000D01*
X116566988Y-94070000D01*
X116534075Y-94127007D01*
X116500000Y-94254174D01*
X116500000Y-94385826D01*
X116534075Y-94512993D01*
X116566988Y-94570000D01*
X115650000Y-94570000D01*
X115650000Y-95217844D01*
X115656401Y-95277372D01*
X115656403Y-95277379D01*
X115706645Y-95412086D01*
X115706649Y-95412093D01*
X115792809Y-95527187D01*
X115792812Y-95527190D01*
X115907906Y-95613350D01*
X115907913Y-95613354D01*
X116039470Y-95662422D01*
X116095404Y-95704293D01*
X116119821Y-95769758D01*
X116104969Y-95838031D01*
X116083819Y-95866285D01*
X115969889Y-95980215D01*
X115844951Y-96152179D01*
X115748444Y-96341585D01*
X115682753Y-96543760D01*
X115649500Y-96753713D01*
X111500500Y-96753713D01*
X111500500Y-86965600D01*
X118053531Y-86965600D01*
X118056243Y-86995444D01*
X118103924Y-87148459D01*
X118103926Y-87148463D01*
X118186839Y-87285619D01*
X118186842Y-87285623D01*
X118300176Y-87398957D01*
X118300180Y-87398960D01*
X118437336Y-87481873D01*
X118437340Y-87481875D01*
X118590357Y-87529556D01*
X118590356Y-87529556D01*
X118656863Y-87535600D01*
X118657700Y-87535600D01*
X118657700Y-86965600D01*
X118053531Y-86965600D01*
X111500500Y-86965600D01*
X111500500Y-86465600D01*
X118053531Y-86465600D01*
X118657700Y-86465600D01*
X118657700Y-85895600D01*
X118656863Y-85895600D01*
X118590356Y-85901643D01*
X118437340Y-85949324D01*
X118437336Y-85949326D01*
X118300180Y-86032239D01*
X118300176Y-86032242D01*
X118186842Y-86145576D01*
X118186839Y-86145580D01*
X118103926Y-86282736D01*
X118103924Y-86282740D01*
X118056243Y-86435755D01*
X118053531Y-86465600D01*
X111500500Y-86465600D01*
X111500500Y-64749500D01*
X111520185Y-64682461D01*
X111572989Y-64636706D01*
X111624500Y-64625500D01*
X161375500Y-64625500D01*
X161442539Y-64645185D01*
G37*
%TD.AperFunction*%
%TD*%
M02*
