M48
; DRILL file {KiCad 9.0.7} date 2026-03-02T20:21:10-0500
; FORMAT={-:-/ absolute / metric / decimal}
; #@! TF.CreationDate,2026-03-02T20:21:10-05:00
; #@! TF.GenerationSoftware,Kicad,Pcbnew,9.0.7
; #@! TF.FileFunction,Plated,1,4,PTH
FMAT,2
METRIC
; #@! TA.AperFunction,Plated,PTH,ViaDrill
T1C0.300
; #@! TA.AperFunction,Plated,PTH,ComponentDrill
T2C1.000
%
G90
G05
T1
X123.7Y-85.3
X123.7Y-88.1
X124.5Y-86.173
X124.5Y-87.227
X136.4Y-69.4
X136.4Y-70.75
X136.7Y-106.85
X137.1Y-98.45
X137.8Y-100.0
X137.8Y-106.8
X138.9Y-101.45
X143.4Y-100.7
X144.3Y-100.1
X144.9Y-101.7
X146.1Y-101.7
T2
X117.0Y-94.32
X117.0Y-96.86
X117.0Y-99.4
X125.22Y-67.312
X126.72Y-84.15
X126.72Y-86.69
X126.72Y-89.23
X126.72Y-91.77
X126.72Y-94.31
X126.72Y-96.85
X126.72Y-99.39
X126.72Y-101.93
X126.72Y-104.47
X126.72Y-107.01
X126.72Y-109.55
X127.76Y-67.312
X130.3Y-67.312
X132.84Y-67.312
X135.38Y-67.312
X137.92Y-67.312
X140.46Y-67.312
X141.95Y-81.61
X141.95Y-84.15
X141.95Y-86.69
X141.95Y-89.23
X141.95Y-91.77
X141.95Y-94.31
X141.95Y-96.85
X141.95Y-99.39
X141.95Y-101.93
X141.95Y-104.47
X141.95Y-107.01
X141.95Y-109.55
X143.0Y-67.312
X147.715Y-107.03
X147.715Y-109.57
X147.715Y-112.11
X147.715Y-114.65
X147.9Y-81.02
X147.9Y-83.56
X147.9Y-86.1
X147.9Y-88.64
X147.9Y-91.18
X147.9Y-93.72
X147.9Y-96.26
X147.9Y-98.8
M30
